<svg width="224" height="106" viewBox="0 0 224 106" fill="none" xmlns="http://www.w3.org/2000/svg">
<g clip-path="url(#clip0_29_8956)">
<path d="M79.7715 10.2979C94.8832 16.888 106.777 28.9564 117.053 41.6151C123.058 49.3656 128.686 57.1605 135.012 64.6725C139.049 69.6737 143.09 74.5536 148.095 78.5522C157.977 87.0223 169.51 91.9912 182.629 91.6758C189.036 91.5909 195.443 90.2729 201.5 88.1544C195.668 91.1381 189.277 93.0181 182.737 93.661C166.983 95.2256 153.309 88.7689 141.877 78.3096C138.198 74.9539 135.036 71.0362 131.907 67.2398C127.794 62.182 123.693 57.0352 119.929 51.6944C114.397 43.6892 108.476 36.0762 101.973 28.8634C95.554 21.5455 88.0423 15.477 79.7715 10.3019V10.2979Z" fill="#1CE887"/>
<path d="M110.682 67.567C102.335 71.044 67.8698 84.5275 41.2335 71.6626C35.2443 68.7718 24.2781 63.4714 21.7072 52.7493C20.0764 45.9449 22.5026 39.7753 23.1734 38.1338C26.7686 29.3079 34.0714 25.3578 36.12 24.335C20.3375 29.9709 9.86936 41.6836 10.6808 52.0903C11.3476 60.6211 19.4457 67.3891 37.9557 76.6881C45.1942 80.3228 50.352 82.8496 57.727 83.262C64.0698 83.6178 63.7645 81.948 78.2254 80.8322C85.7652 80.25 88.4606 80.5047 92.9595 78.6206C95.8919 77.3916 98.539 75.6975 102.753 73.0008C106.107 70.854 108.81 68.9376 110.678 67.567H110.682Z" fill="#1CE887"/>
<path d="M146.031 74.0363C154.029 75.2654 166.658 75.8597 179.517 70.2682C188.462 66.3788 191.897 61.9396 192.817 60.6863C194.568 58.3009 198.778 51.6865 197.757 42.6827C196.669 33.0724 190.382 27.4809 188.972 26.2842C190.893 26.9108 193.491 27.9984 196.111 29.9674C207.731 38.7124 212.644 59.441 203.739 71.4892C197.757 79.5834 187.655 81.1157 181.039 81.807C166.036 83.3757 153.535 78.1845 146.023 74.0323L146.031 74.0363Z" fill="#1CE887"/>
<path d="M70.7631 19.3456L66.0151 16.5761L61.2872 13.7824C59.7125 14.6759 58.1339 15.5694 56.5552 16.4467C54.9886 17.2958 53.2292 18.351 51.755 19.0868L51.7309 20.5747C51.7871 20.5747 51.8434 20.5787 51.8996 20.5908C51.9599 20.5989 52.0201 20.611 52.0764 20.6313C52.1326 20.6474 52.1888 20.6717 52.2411 20.7C52.2933 20.7242 52.3455 20.7566 52.3937 20.793C52.4459 20.8253 52.4901 20.8657 52.5343 20.9062C52.6186 20.9911 52.695 21.0881 52.7512 21.2013C52.7833 21.2539 52.8074 21.3145 52.8275 21.3752C52.8918 21.5571 52.9079 21.7471 52.8757 21.9291C52.8798 21.9331 52.8798 21.9372 52.8757 21.9412C52.8757 21.9412 52.8757 21.9425 52.8757 21.9452C52.8677 22.0018 52.8556 22.0625 52.8356 22.115C52.8195 22.1636 52.8034 22.2121 52.7793 22.2565C52.7351 22.3617 52.6709 22.4587 52.5905 22.5436C52.5704 22.5679 52.5504 22.5921 52.5263 22.6123C53.6992 22.7417 54.8681 22.9236 56.025 23.1622C57.676 23.4978 59.3229 23.9223 60.8975 24.4519C62.4722 24.9735 63.9785 25.6042 65.4768 26.3481C66.9792 27.088 68.4735 27.937 70.0802 28.9518C70.3132 29.0973 70.5502 29.2469 70.7912 29.4006C70.7671 26.5422 70.7551 21.8482 70.7631 19.3456ZM18.5511 42.8881C18.4707 42.8598 18.3944 42.8275 18.3221 42.7911C18.298 42.783 18.2779 42.7749 18.2578 42.7628C18.2217 42.7466 18.1815 42.7264 18.1414 42.7102C17.9566 42.6293 17.7798 42.5404 17.6031 42.4474C17.4545 42.3706 17.3058 42.2897 17.1612 42.2048C16.8881 42.0512 16.623 41.8814 16.3619 41.6995C16.3498 41.6914 16.3378 41.6873 16.3257 41.6752C16.3217 41.6752 16.3217 41.6712 16.3177 41.6671C16.3096 41.6671 16.3056 41.6631 16.2976 41.655C16.2896 41.6469 16.2775 41.6429 16.2695 41.6348C16.2614 42.4717 16.2534 43.3045 16.2413 44.1374L18.2337 45.1967C18.286 44.6266 18.3623 44.0606 18.4507 43.4946C18.4828 43.2924 18.5189 43.0943 18.5591 42.8921C18.5551 42.8921 18.5511 42.8881 18.5511 42.8881ZM70.7631 19.3456L66.0151 16.5761L61.2872 13.7824C59.7125 14.6759 58.1339 15.5694 56.5552 16.4467C54.9886 17.2958 53.2292 18.351 51.755 19.0868L51.7309 20.5747C51.7871 20.5747 51.8434 20.5787 51.8996 20.5908C51.9599 20.5989 52.0201 20.611 52.0764 20.6313C52.1326 20.6474 52.1888 20.6717 52.2411 20.7C52.2933 20.7242 52.3455 20.7566 52.3937 20.793C52.4459 20.8253 52.4901 20.8657 52.5343 20.9062C52.6186 20.9911 52.695 21.0881 52.7512 21.2013C52.7833 21.2539 52.8074 21.3145 52.8275 21.3752C52.8918 21.5571 52.9079 21.7471 52.8757 21.9291C52.8798 21.9331 52.8798 21.9372 52.8757 21.9412C52.8757 21.9412 52.8757 21.9425 52.8757 21.9452C52.8677 22.0018 52.8556 22.0625 52.8356 22.115C52.8195 22.1636 52.8034 22.2121 52.7793 22.2565C52.7351 22.3617 52.6709 22.4587 52.5905 22.5436C52.5704 22.5679 52.5504 22.5921 52.5263 22.6123C53.6992 22.7417 54.8681 22.9236 56.025 23.1622C57.676 23.4978 59.3229 23.9223 60.8975 24.4519C62.4722 24.9735 63.9785 25.6042 65.4768 26.3481C66.9792 27.088 68.4735 27.937 70.0802 28.9518C70.3132 29.0973 70.5502 29.2469 70.7912 29.4006C70.7671 26.5422 70.7551 21.8482 70.7631 19.3456ZM18.5511 42.8881C18.4707 42.8598 18.3944 42.8275 18.3221 42.7911C18.298 42.783 18.2779 42.7749 18.2578 42.7628C18.2217 42.7466 18.1815 42.7264 18.1414 42.7102C17.9566 42.6293 17.7798 42.5404 17.6031 42.4474C17.4545 42.3706 17.3058 42.2897 17.1612 42.2048C16.8881 42.0512 16.623 41.8814 16.3619 41.6995C16.3498 41.6914 16.3378 41.6873 16.3257 41.6752C16.3177 41.6712 16.3056 41.6671 16.2976 41.655C16.2896 41.655 16.2775 41.6469 16.2695 41.6388C16.2614 42.4717 16.2534 43.3045 16.2413 44.1374L18.2337 45.1967C18.286 44.6266 18.3623 44.0606 18.4507 43.4946C18.4828 43.2924 18.5189 43.0943 18.5591 42.8921C18.5551 42.8921 18.5511 42.8881 18.5511 42.8881ZM70.7631 19.3456L66.0151 16.5761L61.2872 13.7824C59.7125 14.6759 58.1339 15.5694 56.5552 16.4467C54.9886 17.2958 53.2292 18.351 51.755 19.0868L51.7309 20.5747C51.7871 20.5747 51.8434 20.5787 51.8996 20.5908C51.9599 20.5989 52.0201 20.611 52.0764 20.6313C52.1326 20.6474 52.1888 20.6717 52.2411 20.7C52.2933 20.7242 52.3455 20.7566 52.3937 20.793C52.4459 20.8253 52.4901 20.8657 52.5343 20.9062C52.6186 20.9911 52.695 21.0881 52.7512 21.2013C52.7833 21.2539 52.8074 21.3145 52.8275 21.3752C52.8918 21.5571 52.9079 21.7471 52.8757 21.9291C52.8798 21.9331 52.8798 21.9372 52.8757 21.9412C52.8757 21.9412 52.8757 21.9425 52.8757 21.9452C52.8677 22.0018 52.8556 22.0625 52.8356 22.115C52.8195 22.1636 52.8034 22.2121 52.7793 22.2565C52.7351 22.3617 52.6709 22.4587 52.5905 22.5436C52.5704 22.5679 52.5504 22.5921 52.5263 22.6123C53.6992 22.7417 54.8681 22.9236 56.025 23.1622C57.676 23.4978 59.3229 23.9223 60.8975 24.4519C62.4722 24.9735 63.9785 25.6042 65.4768 26.3481C66.9792 27.088 68.4735 27.937 70.0802 28.9518C70.3132 29.0973 70.5502 29.2469 70.7912 29.4006C70.7671 26.5422 70.7551 21.8482 70.7631 19.3456ZM18.5511 42.8881C18.4707 42.8598 18.3944 42.8275 18.3221 42.7911C18.298 42.783 18.2779 42.7749 18.2578 42.7628C18.2217 42.7466 18.1815 42.7264 18.1414 42.7102C17.9566 42.6293 17.7798 42.5404 17.6031 42.4474C17.4545 42.3746 17.3058 42.2938 17.1612 42.2048C16.8881 42.0512 16.623 41.8814 16.3619 41.6995C16.3498 41.6914 16.3378 41.6873 16.3257 41.6752C16.3177 41.6712 16.3056 41.6671 16.2976 41.655C16.2896 41.655 16.2775 41.6469 16.2695 41.6388C16.2614 42.4717 16.2534 43.3045 16.2413 44.1374L18.2337 45.1967C18.286 44.6266 18.3623 44.0606 18.4507 43.4946C18.4828 43.2924 18.5189 43.0943 18.5591 42.8921C18.5551 42.8921 18.5511 42.8881 18.5511 42.8881ZM70.7631 19.3456L66.0151 16.5761L61.2872 13.7824C59.7125 14.6759 58.1339 15.5694 56.5552 16.4467C54.9886 17.2958 53.2292 18.351 51.755 19.0868L51.7309 20.5747C51.7871 20.5747 51.8434 20.5787 51.8996 20.5908C51.9599 20.5989 52.0201 20.611 52.0764 20.6313C52.1326 20.6474 52.1888 20.6717 52.2411 20.7C52.2933 20.7242 52.3455 20.7566 52.3937 20.793C52.4459 20.8253 52.4901 20.8657 52.5343 20.9062C52.6186 20.9911 52.695 21.0881 52.7512 21.2013C52.7833 21.2539 52.8074 21.3145 52.8275 21.3752C52.8918 21.5571 52.9079 21.7471 52.8757 21.9291C52.8798 21.9331 52.8798 21.9372 52.8757 21.9412C52.8757 21.9412 52.8757 21.9425 52.8757 21.9452C52.8677 22.0018 52.8556 22.0625 52.8356 22.115C52.8195 22.1636 52.8034 22.2121 52.7793 22.2565C52.7351 22.3617 52.6709 22.4587 52.5905 22.5436C52.5704 22.5679 52.5504 22.5921 52.5263 22.6123C53.6992 22.7417 54.8681 22.9236 56.025 23.1622C57.676 23.4978 59.3229 23.9223 60.8975 24.4519C62.4722 24.9735 63.9785 25.6042 65.4768 26.3481C66.9792 27.088 68.4735 27.937 70.0802 28.9518C70.3132 29.0973 70.5502 29.2469 70.7912 29.4006C70.7671 26.5422 70.7551 21.8482 70.7631 19.3456ZM18.5511 42.8881C18.4707 42.8598 18.3944 42.8275 18.3221 42.7911C18.298 42.783 18.2779 42.7749 18.2578 42.7628C18.2217 42.7466 18.1815 42.7264 18.1414 42.7102C17.9566 42.6293 17.7798 42.5404 17.6031 42.4474C17.4545 42.3746 17.3058 42.2938 17.1612 42.2048C16.8881 42.0512 16.623 41.8814 16.3619 41.6995C16.3498 41.6914 16.3378 41.6873 16.3257 41.6752C16.3177 41.6712 16.3056 41.6671 16.2976 41.655C16.2896 41.655 16.2775 41.6469 16.2695 41.6388C16.2614 42.4717 16.2534 43.3045 16.2413 44.1374L18.2337 45.1967C18.286 44.6266 18.3623 44.0606 18.4507 43.4946C18.4828 43.2924 18.5189 43.0943 18.5591 42.8921C18.5551 42.8921 18.5511 42.8881 18.5511 42.8881ZM70.7631 19.3456L66.0151 16.5761L61.2872 13.7824C59.7125 14.6759 58.1339 15.5694 56.5552 16.4467C54.9886 17.2958 53.2292 18.351 51.755 19.0868L51.7309 20.5747C51.7871 20.5747 51.8434 20.5787 51.8996 20.5908C51.9599 20.5989 52.0201 20.611 52.0764 20.6313C52.1326 20.6474 52.1888 20.6717 52.2411 20.7C52.2933 20.7242 52.3455 20.7566 52.3937 20.793C52.4459 20.8253 52.4901 20.8657 52.5343 20.9062C52.6186 20.9911 52.695 21.0881 52.7512 21.2013C52.7833 21.2539 52.8074 21.3145 52.8275 21.3752C52.8918 21.5571 52.9079 21.7471 52.8757 21.9291C52.8798 21.9331 52.8798 21.9372 52.8757 21.9412C52.8757 21.9412 52.8757 21.9425 52.8757 21.9452C52.8677 22.0018 52.8556 22.0625 52.8356 22.115C52.8195 22.1636 52.8034 22.2121 52.7793 22.2565C52.7351 22.3617 52.6709 22.4587 52.5905 22.5436C52.5704 22.5679 52.5504 22.5921 52.5263 22.6123C53.6992 22.7417 54.8681 22.9236 56.025 23.1622C57.676 23.4978 59.3229 23.9223 60.8975 24.4519C62.4722 24.9735 63.9785 25.6042 65.4768 26.3481C66.9792 27.088 68.4735 27.937 70.0802 28.9518C70.3132 29.0973 70.5502 29.2469 70.7912 29.4006C70.7671 26.5422 70.7551 21.8482 70.7631 19.3456ZM18.5511 42.8881C18.4707 42.8598 18.3944 42.8275 18.3221 42.7911C18.298 42.783 18.2779 42.7749 18.2578 42.7628C18.2217 42.7466 18.1815 42.7264 18.1414 42.7102C17.9566 42.6293 17.7798 42.5404 17.6031 42.4474C17.4545 42.3746 17.3058 42.2938 17.1612 42.2048C16.8881 42.0512 16.623 41.8814 16.3619 41.6995C16.3498 41.6914 16.3378 41.6873 16.3257 41.6752C16.3177 41.6712 16.3056 41.6671 16.2976 41.655C16.2896 41.655 16.2775 41.6469 16.2695 41.6388C16.2614 42.4717 16.2534 43.3045 16.2413 44.1374L18.2337 45.1967C18.286 44.6266 18.3623 44.0606 18.4507 43.4946C18.4828 43.2924 18.5189 43.0943 18.5591 42.8921C18.5551 42.8921 18.5511 42.8881 18.5511 42.8881ZM70.7631 19.3456L66.0151 16.5761L61.2872 13.7824C59.7125 14.6759 58.1339 15.5694 56.5552 16.4467C54.9886 17.2958 53.2292 18.351 51.755 19.0868L51.7309 20.5747C51.7871 20.5747 51.8434 20.5787 51.8996 20.5908C51.9599 20.5989 52.0201 20.611 52.0764 20.6313C52.1326 20.6474 52.1888 20.6717 52.2411 20.7C52.2933 20.7242 52.3455 20.7566 52.3937 20.793C52.4459 20.8253 52.4901 20.8657 52.5343 20.9062C52.6186 20.9911 52.695 21.0881 52.7512 21.2013C52.7833 21.2539 52.8074 21.3145 52.8275 21.3752C52.8918 21.5571 52.9079 21.7471 52.8757 21.9291C52.8798 21.9331 52.8798 21.9372 52.8757 21.9412C52.8757 21.9412 52.8757 21.9425 52.8757 21.9452C52.8677 22.0018 52.8556 22.0625 52.8356 22.115C52.8195 22.1636 52.8034 22.2121 52.7793 22.2565C52.7351 22.3617 52.6709 22.4587 52.5905 22.5436C52.5704 22.5679 52.5504 22.5921 52.5263 22.6123C53.6992 22.7417 54.8681 22.9236 56.025 23.1622C57.676 23.4978 59.3229 23.9223 60.8975 24.4519C62.4722 24.9735 63.9785 25.6042 65.4768 26.3481C66.9792 27.088 68.4735 27.937 70.0802 28.9518C70.3132 29.0973 70.5502 29.2469 70.7912 29.4006C70.7671 26.5422 70.7551 21.8482 70.7631 19.3456ZM18.5511 42.8881C18.4707 42.8598 18.3944 42.8275 18.3221 42.7911C18.298 42.783 18.2779 42.7749 18.2578 42.7628C18.2217 42.7466 18.1815 42.7264 18.1414 42.7102C17.9566 42.6293 17.7798 42.5404 17.6031 42.4474C17.4545 42.3746 17.3058 42.2938 17.1612 42.2048C16.8881 42.0512 16.623 41.8814 16.3619 41.6995C16.3498 41.6914 16.3378 41.6873 16.3257 41.6752C16.3177 41.6712 16.3056 41.6671 16.2976 41.655C16.2896 41.655 16.2775 41.6469 16.2695 41.6388C16.2614 42.4717 16.2534 43.3045 16.2413 44.1374L18.2337 45.1967C18.286 44.6266 18.3623 44.0606 18.4507 43.4946C18.4828 43.2924 18.5189 43.0943 18.5591 42.8921C18.5551 42.8921 18.5511 42.8881 18.5511 42.8881ZM70.7631 19.3456L66.0151 16.5761L61.2872 13.7824C59.7125 14.6759 58.1339 15.5694 56.5552 16.4467C54.9886 17.2958 53.2292 18.351 51.755 19.0868L51.7309 20.5747C51.7871 20.5747 51.8434 20.5787 51.8996 20.5908C51.9599 20.5989 52.0201 20.611 52.0764 20.6313C52.1326 20.6474 52.1888 20.6717 52.2411 20.7C52.2933 20.7242 52.3455 20.7566 52.3937 20.793C52.4459 20.8253 52.4901 20.8657 52.5343 20.9062C52.6186 20.9911 52.695 21.0881 52.7512 21.2013C52.7833 21.2539 52.8074 21.3145 52.8275 21.3752C52.8918 21.5571 52.9079 21.7471 52.8757 21.9291C52.8798 21.9331 52.8798 21.9372 52.8757 21.9412C52.8757 21.9412 52.8757 21.9425 52.8757 21.9452C52.8677 22.0018 52.8556 22.0625 52.8356 22.115C52.8195 22.1636 52.8034 22.2121 52.7793 22.2565C52.7351 22.3617 52.6709 22.4587 52.5905 22.5436C52.5704 22.5679 52.5504 22.5921 52.5263 22.6123C53.6992 22.7417 54.8681 22.9236 56.025 23.1622C57.676 23.4978 59.3229 23.9223 60.8975 24.4519C62.4722 24.9735 63.9785 25.6042 65.4768 26.3481C66.9792 27.088 68.4735 27.937 70.0802 28.9518C70.3132 29.0973 70.5502 29.2469 70.7912 29.4006C70.7671 26.5422 70.7551 21.8482 70.7631 19.3456ZM18.5511 42.8881C18.4707 42.8598 18.3944 42.8275 18.3221 42.7911C18.298 42.783 18.2779 42.7749 18.2578 42.7628C18.2217 42.7466 18.1815 42.7264 18.1414 42.7102C17.9566 42.6293 17.7798 42.5404 17.6031 42.4474C17.4545 42.3746 17.3058 42.2938 17.1612 42.2048C16.8881 42.0512 16.623 41.8814 16.3619 41.6995C16.3498 41.6914 16.3378 41.6873 16.3257 41.6752C16.3177 41.6712 16.3056 41.6671 16.2976 41.655C16.2896 41.655 16.2775 41.6469 16.2695 41.6388C16.2614 42.4717 16.2534 43.3045 16.2413 44.1374L18.2337 45.1967C18.286 44.6266 18.3623 44.0606 18.4507 43.4946C18.4828 43.2924 18.5189 43.0943 18.5591 42.8921C18.5551 42.8921 18.5511 42.8881 18.5511 42.8881ZM70.7631 19.3456L66.0151 16.5761L61.2872 13.7824C59.7125 14.6759 58.1339 15.5694 56.5552 16.4467C54.9886 17.2958 53.2292 18.351 51.755 19.0868L51.7309 20.5747C51.7871 20.5747 51.8434 20.5787 51.8996 20.5908C51.9599 20.5989 52.0201 20.611 52.0764 20.6313C52.1326 20.6474 52.1888 20.6717 52.2411 20.7C52.2933 20.7242 52.3455 20.7566 52.3937 20.793C52.4459 20.8253 52.4901 20.8657 52.5343 20.9062C52.6186 20.9911 52.695 21.0881 52.7512 21.2013C52.7833 21.2539 52.8074 21.3145 52.8275 21.3752C52.8918 21.5571 52.9079 21.7471 52.8757 21.9291C52.8798 21.9331 52.8798 21.9372 52.8757 21.9412C52.8757 21.9412 52.8757 21.9425 52.8757 21.9452C52.8677 22.0018 52.8556 22.0625 52.8356 22.115C52.8195 22.1636 52.8034 22.2121 52.7793 22.2565C52.7351 22.3617 52.6709 22.4587 52.5905 22.5436C52.5704 22.5679 52.5504 22.5921 52.5263 22.6123C53.6992 22.7417 54.8681 22.9236 56.025 23.1622C57.676 23.4978 59.3229 23.9223 60.8975 24.4519C62.4722 24.9735 63.9785 25.6042 65.4768 26.3481C66.9792 27.088 68.4735 27.937 70.0802 28.9518C70.3132 29.0973 70.5502 29.2469 70.7912 29.4006C70.7671 26.5422 70.7551 21.8482 70.7631 19.3456ZM18.5511 42.8881C18.4707 42.8598 18.3944 42.8275 18.3221 42.7911C18.298 42.783 18.2779 42.7749 18.2578 42.7628C18.2217 42.7466 18.1815 42.7264 18.1414 42.7102C17.9566 42.6293 17.7798 42.5404 17.6031 42.4474C17.4545 42.3746 17.3058 42.2938 17.1612 42.2048C16.8881 42.0512 16.623 41.8814 16.3619 41.6995C16.3498 41.6914 16.3378 41.6873 16.3257 41.6752C16.3177 41.6712 16.3056 41.6671 16.2976 41.655C16.2896 41.655 16.2775 41.6469 16.2695 41.6388C16.2614 42.4717 16.2534 43.3045 16.2413 44.1374L18.2337 45.1967C18.286 44.6266 18.3623 44.0606 18.4507 43.4946C18.4828 43.2924 18.5189 43.0943 18.5591 42.8921C18.5551 42.8921 18.5511 42.8881 18.5511 42.8881ZM70.7631 19.3456L66.0151 16.5761L61.2872 13.7824C59.7125 14.6759 58.1339 15.5694 56.5552 16.4467C54.9886 17.2958 53.2292 18.351 51.755 19.0868L51.7309 20.5747C51.7871 20.5747 51.8434 20.5787 51.8996 20.5908C51.9599 20.5989 52.0201 20.611 52.0764 20.6313C52.1326 20.6474 52.1888 20.6717 52.2411 20.7C52.2933 20.7242 52.3455 20.7566 52.3937 20.793C52.4459 20.8253 52.4901 20.8657 52.5343 20.9062C52.6186 20.9911 52.695 21.0881 52.7512 21.2013C52.7833 21.2539 52.8074 21.3145 52.8275 21.3752C52.8918 21.5571 52.9079 21.7471 52.8757 21.9291C52.8798 21.9331 52.8798 21.9372 52.8757 21.9412C52.8757 21.9412 52.8757 21.9425 52.8757 21.9452C52.8677 22.0018 52.8556 22.0625 52.8356 22.115C52.8195 22.1636 52.8034 22.2121 52.7793 22.2565C52.7351 22.3617 52.6709 22.4587 52.5905 22.5436C52.5704 22.5679 52.5504 22.5921 52.5263 22.6123C53.6992 22.7417 54.8681 22.9236 56.025 23.1622C57.676 23.4978 59.3229 23.9223 60.8975 24.4519C62.4722 24.9735 63.9785 25.6042 65.4768 26.3481C66.9792 27.088 68.4735 27.937 70.0802 28.9518C70.3132 29.0973 70.5502 29.2469 70.7912 29.4006C70.7671 26.5422 70.7551 21.8482 70.7631 19.3456ZM18.5511 42.8881C18.4707 42.8598 18.3944 42.8275 18.3221 42.7911C18.298 42.783 18.2779 42.7749 18.2578 42.7628C18.2217 42.7466 18.1815 42.7264 18.1414 42.7102C17.9566 42.6293 17.7798 42.5404 17.6031 42.4474C17.4545 42.3746 17.3058 42.2938 17.1612 42.2048C16.8881 42.0512 16.623 41.8814 16.3619 41.6995C16.3498 41.6914 16.3378 41.6873 16.3257 41.6752C16.3177 41.6712 16.3056 41.6671 16.2976 41.655C16.2896 41.655 16.2775 41.6469 16.2695 41.6388C16.2614 42.4717 16.2534 43.3045 16.2413 44.1374L18.2337 45.1967C18.286 44.6266 18.3623 44.0606 18.4507 43.4946C18.4828 43.2924 18.5189 43.0943 18.5591 42.8921C18.5551 42.8921 18.5511 42.8881 18.5511 42.8881ZM70.7631 19.3456L66.0151 16.5761L61.2872 13.7824C59.7125 14.6759 58.1339 15.5694 56.5552 16.4467C54.9886 17.2958 53.2292 18.351 51.755 19.0868L51.7309 20.5747C51.7871 20.5747 51.8434 20.5787 51.8996 20.5908C51.9599 20.5989 52.0201 20.611 52.0764 20.6313C52.1326 20.6474 52.1888 20.6717 52.2411 20.7C52.2933 20.7242 52.3455 20.7566 52.3937 20.793C52.4459 20.8253 52.4901 20.8657 52.5343 20.9062C52.6186 20.9911 52.695 21.0881 52.7512 21.2013C52.7833 21.2539 52.8074 21.3145 52.8275 21.3752C52.8918 21.5571 52.9079 21.7471 52.8757 21.9291C52.8798 21.9331 52.8798 21.9372 52.8757 21.9412C52.8757 21.9412 52.8757 21.9425 52.8757 21.9452C52.8677 22.0018 52.8556 22.0625 52.8356 22.115C52.8195 22.1636 52.8034 22.2121 52.7793 22.2565C52.7351 22.3617 52.6709 22.4587 52.5905 22.5436C52.5704 22.5679 52.5504 22.5921 52.5263 22.6123C53.6992 22.7417 54.8681 22.9236 56.025 23.1622C57.676 23.4978 59.3229 23.9223 60.8975 24.4519C62.4722 24.9735 63.9785 25.6042 65.4768 26.3481C66.9792 27.088 68.4735 27.937 70.0802 28.9518C70.3132 29.0973 70.5502 29.2469 70.7912 29.4006C70.7671 26.5422 70.7551 21.8482 70.7631 19.3456ZM18.5511 42.8881C18.4707 42.8598 18.3944 42.8275 18.3221 42.7911C18.298 42.783 18.2779 42.7749 18.2578 42.7628C18.2217 42.7466 18.1815 42.7264 18.1414 42.7102C17.9566 42.6293 17.7798 42.5404 17.6031 42.4474C17.4545 42.3746 17.3058 42.2938 17.1612 42.2048C16.8881 42.0512 16.623 41.8814 16.3619 41.6995C16.3498 41.6914 16.3378 41.6873 16.3257 41.6752C16.3177 41.6712 16.3056 41.6671 16.2976 41.655C16.2896 41.655 16.2775 41.6469 16.2695 41.6388C16.2614 42.4717 16.2534 43.3045 16.2413 44.1374L18.2337 45.1967C18.286 44.6266 18.3623 44.0606 18.4507 43.4946C18.4828 43.2924 18.5189 43.0943 18.5591 42.8921C18.5551 42.8921 18.5511 42.8881 18.5511 42.8881ZM70.7631 19.3456L66.0151 16.5761L61.2872 13.7824C59.7125 14.6759 58.1339 15.5694 56.5552 16.4467C54.9886 17.2958 53.2292 18.351 51.755 19.0868L51.7309 20.5747C51.7871 20.5747 51.8434 20.5787 51.8996 20.5908C51.9599 20.5989 52.0201 20.611 52.0764 20.6313C52.1326 20.6474 52.1888 20.6717 52.2411 20.7C52.2933 20.7242 52.3455 20.7566 52.3937 20.793C52.4459 20.8253 52.4901 20.8657 52.5343 20.9062C52.6186 20.9911 52.695 21.0881 52.7512 21.2013C52.7833 21.2539 52.8074 21.3145 52.8275 21.3752C52.8918 21.5571 52.9079 21.7471 52.8757 21.9291C52.8798 21.9331 52.8798 21.9372 52.8757 21.9412C52.8757 21.9412 52.8757 21.9425 52.8757 21.9452C52.8677 22.0018 52.8556 22.0625 52.8356 22.115C52.8195 22.1636 52.8034 22.2121 52.7793 22.2565C52.7351 22.3617 52.6709 22.4587 52.5905 22.5436C52.5704 22.5679 52.5504 22.5921 52.5263 22.6123C53.6992 22.7417 54.8681 22.9236 56.025 23.1622C57.676 23.4978 59.3229 23.9223 60.8975 24.4519C62.4722 24.9735 63.9785 25.6042 65.4768 26.3481C66.9792 27.088 68.4735 27.937 70.0802 28.9518C70.3132 29.0973 70.5502 29.2469 70.7912 29.4006C70.7671 26.5422 70.7551 21.8482 70.7631 19.3456ZM18.5511 42.8881C18.4707 42.8598 18.3944 42.8275 18.3221 42.7911C18.298 42.783 18.2779 42.7749 18.2578 42.7628C18.2217 42.7466 18.1815 42.7264 18.1414 42.7102C17.9566 42.6293 17.7798 42.5404 17.6031 42.4474C17.4545 42.3746 17.3058 42.2938 17.1612 42.2048C16.8881 42.0512 16.623 41.8814 16.3619 41.6995C16.3498 41.6914 16.3378 41.6873 16.3257 41.6752C16.3177 41.6712 16.3056 41.6671 16.2976 41.655C16.2896 41.655 16.2775 41.6469 16.2695 41.6388C16.2614 42.4717 16.2534 43.3045 16.2413 44.1374L18.2337 45.1967C18.286 44.6266 18.3623 44.0606 18.4507 43.4946C18.4828 43.2924 18.5189 43.0943 18.5591 42.8921C18.5551 42.8921 18.5511 42.8881 18.5511 42.8881ZM70.7631 19.3456L66.0151 16.5761L61.2872 13.7824C59.7125 14.6759 58.1339 15.5694 56.5552 16.4467C54.9886 17.2958 53.2292 18.351 51.755 19.0868L51.7309 20.5747C51.7871 20.5747 51.8434 20.5787 51.8996 20.5908C51.9599 20.5989 52.0201 20.611 52.0764 20.6313C52.1326 20.6474 52.1888 20.6717 52.2411 20.7C52.2933 20.7242 52.3455 20.7566 52.3937 20.793C52.4459 20.8253 52.4901 20.8657 52.5343 20.9062C52.6186 20.9911 52.695 21.0881 52.7512 21.2013C52.7833 21.2539 52.8074 21.3145 52.8275 21.3752C52.8918 21.5571 52.9079 21.7471 52.8757 21.9291C52.8798 21.9331 52.8798 21.9372 52.8757 21.9412C52.8757 21.9412 52.8757 21.9425 52.8757 21.9452C52.8677 22.0018 52.8556 22.0625 52.8356 22.115C52.8195 22.1636 52.8034 22.2121 52.7793 22.2565C52.7351 22.3617 52.6709 22.4587 52.5905 22.5436C52.5704 22.5679 52.5504 22.5921 52.5263 22.6123C53.6992 22.7417 54.8681 22.9236 56.025 23.1622C57.676 23.4978 59.3229 23.9223 60.8975 24.4519C62.4722 24.9735 63.9785 25.6042 65.4768 26.3481C66.9792 27.088 68.4735 27.937 70.0802 28.9518C70.3132 29.0973 70.5502 29.2469 70.7912 29.4006C70.7671 26.5422 70.7551 21.8482 70.7631 19.3456ZM18.5511 42.8881C18.4707 42.8598 18.3944 42.8275 18.3221 42.7911C18.298 42.783 18.2779 42.7749 18.2578 42.7628C18.2217 42.7466 18.1815 42.7264 18.1414 42.7102C17.9566 42.6293 17.7798 42.5404 17.6031 42.4474C17.4545 42.3746 17.3058 42.2938 17.1612 42.2048C16.8881 42.0512 16.623 41.8814 16.3619 41.6995C16.3498 41.6914 16.3378 41.6873 16.3257 41.6752C16.3177 41.6712 16.3056 41.6671 16.2976 41.655C16.2896 41.655 16.2775 41.6469 16.2695 41.6388C16.2614 42.4717 16.2534 43.3045 16.2413 44.1374L18.2337 45.1967C18.286 44.6266 18.3623 44.0606 18.4507 43.4946C18.4828 43.2924 18.5189 43.0943 18.5591 42.8921C18.5551 42.8921 18.5511 42.8881 18.5511 42.8881ZM70.7631 19.3456L66.0151 16.5761L61.2872 13.7824C59.7125 14.6759 58.1339 15.5694 56.5552 16.4467C54.9886 17.2958 53.2292 18.351 51.755 19.0868L51.7309 20.5747C51.7871 20.5747 51.8434 20.5787 51.8996 20.5908C51.9599 20.5989 52.0201 20.611 52.0764 20.6313C52.1326 20.6474 52.1888 20.6717 52.2411 20.7C52.2933 20.7242 52.3455 20.7566 52.3937 20.793C52.4459 20.8253 52.4901 20.8657 52.5343 20.9062C52.6186 20.9911 52.695 21.0881 52.7512 21.2013C52.7833 21.2539 52.8074 21.3145 52.8275 21.3752C52.8918 21.5571 52.9079 21.7471 52.8757 21.9291C52.8798 21.9331 52.8798 21.9372 52.8757 21.9412C52.8757 21.9412 52.8757 21.9425 52.8757 21.9452C52.8677 22.0018 52.8556 22.0625 52.8356 22.115C52.8195 22.1636 52.8034 22.2121 52.7793 22.2565C52.7351 22.3617 52.6709 22.4587 52.5905 22.5436C52.5704 22.5679 52.5504 22.5921 52.5263 22.6123C53.6992 22.7417 54.8681 22.9236 56.025 23.1622C57.676 23.4978 59.3229 23.9223 60.8975 24.4519C62.4722 24.9735 63.9785 25.6042 65.4768 26.3481C66.9792 27.088 68.4735 27.937 70.0802 28.9518C70.3132 29.0973 70.5502 29.2469 70.7912 29.4006C70.7671 26.5422 70.7551 21.8482 70.7631 19.3456ZM18.5511 42.8881C18.4707 42.8598 18.3944 42.8275 18.3221 42.7911C18.298 42.783 18.2779 42.7749 18.2578 42.7628C18.2217 42.7466 18.1815 42.7264 18.1414 42.7102C17.9566 42.6293 17.7798 42.5404 17.6031 42.4474C17.4545 42.3746 17.3058 42.2938 17.1612 42.2048C16.8881 42.0512 16.623 41.8814 16.3619 41.6995C16.3498 41.6914 16.3378 41.6873 16.3257 41.6752C16.3177 41.6712 16.3056 41.6671 16.2976 41.655C16.2896 41.655 16.2775 41.6469 16.2695 41.6388C16.2614 42.4717 16.2534 43.3045 16.2413 44.1374L18.2337 45.1967C18.286 44.6266 18.3623 44.0606 18.4507 43.4946C18.4828 43.2924 18.5189 43.0943 18.5591 42.8921C18.5551 42.8921 18.5511 42.8881 18.5511 42.8881ZM70.7631 19.3456L66.0151 16.5761L61.2872 13.7824C59.7125 14.6759 58.1339 15.5694 56.5552 16.4467C54.9886 17.2958 53.2292 18.351 51.755 19.0868L51.7309 20.5747C51.7871 20.5747 51.8434 20.5787 51.8996 20.5908C51.9599 20.5989 52.0201 20.611 52.0764 20.6313C52.1326 20.6474 52.1888 20.6717 52.2411 20.7C52.2933 20.7242 52.3455 20.7566 52.3937 20.793C52.4459 20.8253 52.4901 20.8657 52.5343 20.9062C52.6186 20.9911 52.695 21.0881 52.7512 21.2013C52.7833 21.2539 52.8074 21.3145 52.8275 21.3752C52.8918 21.5571 52.9079 21.7471 52.8757 21.9291C52.8798 21.9331 52.8798 21.9372 52.8757 21.9412C52.8757 21.9412 52.8757 21.9425 52.8757 21.9452C52.8677 22.0018 52.8556 22.0625 52.8356 22.115C52.8195 22.1636 52.8034 22.2121 52.7793 22.2565C52.7351 22.3617 52.6709 22.4587 52.5905 22.5436C52.5704 22.5679 52.5504 22.5921 52.5263 22.6123C53.6992 22.7417 54.8681 22.9236 56.025 23.1622C57.676 23.4978 59.3229 23.9223 60.8975 24.4519C62.4722 24.9735 63.9785 25.6042 65.4768 26.3481C66.9792 27.088 68.4735 27.937 70.0802 28.9518C70.3132 29.0973 70.5502 29.2469 70.7912 29.4006C70.7671 26.5422 70.7551 21.8482 70.7631 19.3456ZM18.5511 42.8881C18.4707 42.8598 18.3944 42.8275 18.3221 42.7911C18.298 42.783 18.2779 42.7749 18.2578 42.7628C18.2217 42.7466 18.1815 42.7264 18.1414 42.7102C17.9566 42.6293 17.7798 42.5404 17.6031 42.4474C17.4545 42.3746 17.3058 42.2938 17.1612 42.2048C16.8881 42.0512 16.623 41.8814 16.3619 41.6995C16.3498 41.6914 16.3378 41.6873 16.3257 41.6752C16.3177 41.6712 16.3056 41.6671 16.2976 41.655C16.2896 41.655 16.2775 41.6469 16.2695 41.6388C16.2614 42.4717 16.2534 43.3045 16.2413 44.1374L18.2337 45.1967C18.286 44.6266 18.3623 44.0606 18.4507 43.4946C18.4828 43.2924 18.5189 43.0943 18.5591 42.8921C18.5551 42.8921 18.5511 42.8881 18.5511 42.8881ZM70.7631 19.3456L66.0151 16.5761L61.2872 13.7824C59.7125 14.6759 58.1339 15.5694 56.5552 16.4467C54.9886 17.2958 53.2292 18.351 51.755 19.0868L51.7309 20.5747C51.7871 20.5747 51.8434 20.5787 51.8996 20.5908C51.9599 20.5989 52.0201 20.611 52.0764 20.6313C52.1326 20.6474 52.1888 20.6717 52.2411 20.7C52.2933 20.7242 52.3455 20.7566 52.3937 20.793C52.4459 20.8253 52.4901 20.8657 52.5343 20.9062C52.6186 20.9911 52.695 21.0881 52.7512 21.2013C52.7833 21.2539 52.8074 21.3145 52.8275 21.3752C52.8918 21.5571 52.9079 21.7471 52.8757 21.9291C52.8798 21.9331 52.8798 21.9372 52.8757 21.9412C52.8757 21.9412 52.8757 21.9425 52.8757 21.9452C52.8677 22.0018 52.8556 22.0625 52.8356 22.115C52.8195 22.1636 52.8034 22.2121 52.7793 22.2565C52.7351 22.3617 52.6709 22.4587 52.5905 22.5436C52.5704 22.5679 52.5504 22.5921 52.5263 22.6123C53.6992 22.7417 54.8681 22.9236 56.025 23.1622C57.676 23.4978 59.3229 23.9223 60.8975 24.4519C62.4722 24.9735 63.9785 25.6042 65.4768 26.3481C66.9792 27.088 68.4735 27.937 70.0802 28.9518C70.3132 29.0973 70.5502 29.2469 70.7912 29.4006C70.7671 26.5422 70.7551 21.8482 70.7631 19.3456ZM18.5511 42.8881C18.4707 42.8598 18.3944 42.8275 18.3221 42.7911C18.298 42.783 18.2779 42.7749 18.2578 42.7628C18.2217 42.7466 18.1815 42.7264 18.1414 42.7102C17.9566 42.6293 17.7798 42.5404 17.6031 42.4474C17.4545 42.3746 17.3058 42.2938 17.1612 42.2048C16.8881 42.0512 16.623 41.8814 16.3619 41.6995C16.3498 41.6914 16.3378 41.6873 16.3257 41.6752C16.3177 41.6712 16.3056 41.6671 16.2976 41.655C16.2896 41.655 16.2775 41.6469 16.2695 41.6388C16.2614 42.4717 16.2534 43.3045 16.2413 44.1374L18.2337 45.1967C18.286 44.6266 18.3623 44.0606 18.4507 43.4946C18.4828 43.2924 18.5189 43.0943 18.5591 42.8921C18.5551 42.8921 18.5511 42.8881 18.5511 42.8881ZM70.7631 19.3456L66.0151 16.5761L61.2872 13.7824C59.7125 14.6759 58.1339 15.5694 56.5552 16.4467C54.9886 17.2958 53.2292 18.351 51.755 19.0868L51.7309 20.5747C51.7871 20.5747 51.8434 20.5787 51.8996 20.5908C51.9599 20.5989 52.0201 20.611 52.0764 20.6313C52.1326 20.6474 52.1888 20.6717 52.2411 20.7C52.2933 20.7242 52.3455 20.7566 52.3937 20.793C52.4459 20.8253 52.4901 20.8657 52.5343 20.9062C52.6186 20.9911 52.695 21.0881 52.7512 21.2013C52.7833 21.2539 52.8074 21.3145 52.8275 21.3752C52.8918 21.5571 52.9079 21.7471 52.8757 21.9291C52.8798 21.9331 52.8798 21.9372 52.8757 21.9412C52.8757 21.9412 52.8757 21.9425 52.8757 21.9452C52.8677 22.0018 52.8556 22.0625 52.8356 22.115C52.8195 22.1636 52.8034 22.2121 52.7793 22.2565C52.7351 22.3617 52.6709 22.4587 52.5905 22.5436C52.5704 22.5679 52.5504 22.5921 52.5263 22.6123C53.6992 22.7417 54.8681 22.9236 56.025 23.1622C57.676 23.4978 59.3229 23.9223 60.8975 24.4519C62.4722 24.9735 63.9785 25.6042 65.4768 26.3481C66.9792 27.088 68.4735 27.937 70.0802 28.9518C70.3132 29.0973 70.5502 29.2469 70.7912 29.4006C70.7671 26.5422 70.7551 21.8482 70.7631 19.3456ZM18.5511 42.8881C18.4707 42.8598 18.3944 42.8275 18.3221 42.7911C18.298 42.783 18.2779 42.7749 18.2578 42.7628C18.2217 42.7466 18.1815 42.7264 18.1414 42.7102C17.9566 42.6293 17.7798 42.5404 17.6031 42.4474C17.4545 42.3746 17.3058 42.2938 17.1612 42.2048C16.8881 42.0512 16.623 41.8814 16.3619 41.6995C16.3498 41.6914 16.3378 41.6873 16.3257 41.6752C16.3177 41.6712 16.3056 41.6671 16.2976 41.655C16.2896 41.655 16.2775 41.6469 16.2695 41.6388C16.2614 42.4717 16.2534 43.3045 16.2413 44.1374L18.2337 45.1967C18.286 44.6266 18.3623 44.0606 18.4507 43.4946C18.4828 43.2924 18.5189 43.0943 18.5591 42.8921C18.5551 42.8921 18.5511 42.8881 18.5511 42.8881ZM70.7631 19.3456L66.0151 16.5761L61.2872 13.7824C59.7125 14.6759 58.1339 15.5694 56.5552 16.4467C54.9886 17.2958 53.2292 18.351 51.755 19.0868L51.7309 20.5747C51.7871 20.5747 51.8434 20.5787 51.8996 20.5908C51.9599 20.5989 52.0201 20.611 52.0764 20.6313C52.1326 20.6474 52.1888 20.6717 52.2411 20.7C52.2933 20.7242 52.3455 20.7566 52.3937 20.793C52.4459 20.8253 52.4901 20.8657 52.5343 20.9062C52.6186 20.9911 52.695 21.0881 52.7512 21.2013C52.7833 21.2539 52.8074 21.3145 52.8275 21.3752C52.8918 21.5571 52.9079 21.7471 52.8757 21.9291C52.8798 21.9331 52.8798 21.9372 52.8757 21.9412C52.8757 21.9412 52.8757 21.9425 52.8757 21.9452C52.8677 22.0018 52.8556 22.0625 52.8356 22.115C52.8195 22.1636 52.8034 22.2121 52.7793 22.2565C52.7351 22.3617 52.6709 22.4587 52.5905 22.5436C52.5704 22.5679 52.5504 22.5921 52.5263 22.6123C53.6992 22.7417 54.8681 22.9236 56.025 23.1622C57.676 23.4978 59.3229 23.9223 60.8975 24.4519C62.4722 24.9735 63.9785 25.6042 65.4768 26.3481C66.9792 27.088 68.4735 27.937 70.0802 28.9518C70.3132 29.0973 70.5502 29.2469 70.7912 29.4006C70.7671 26.5422 70.7551 21.8482 70.7631 19.3456ZM18.5511 42.8881C18.4707 42.8598 18.3944 42.8275 18.3221 42.7911C18.298 42.783 18.2779 42.7749 18.2578 42.7628C18.2217 42.7466 18.1815 42.7264 18.1414 42.7102C17.9566 42.6293 17.7798 42.5404 17.6031 42.4474C17.4545 42.3746 17.3058 42.2938 17.1612 42.2048C16.8881 42.0512 16.623 41.8814 16.3619 41.6995C16.3498 41.6914 16.3378 41.6873 16.3257 41.6752C16.3177 41.6712 16.3056 41.6671 16.2976 41.655C16.2896 41.655 16.2775 41.6469 16.2695 41.6388C16.2614 42.4717 16.2534 43.3045 16.2413 44.1374L18.2337 45.1967C18.286 44.6266 18.3623 44.0606 18.4507 43.4946C18.4828 43.2924 18.5189 43.0943 18.5591 42.8921C18.5551 42.8921 18.5511 42.8881 18.5511 42.8881ZM70.7631 19.3456L66.0151 16.5761L61.2872 13.7824C59.7125 14.6759 58.1339 15.5694 56.5552 16.4467C54.9886 17.2958 53.2292 18.351 51.755 19.0868L51.7309 20.5747C51.7871 20.5747 51.8434 20.5787 51.8996 20.5908C51.9599 20.5989 52.0201 20.611 52.0764 20.6313C52.1326 20.6474 52.1888 20.6717 52.2411 20.7C52.2933 20.7242 52.3455 20.7566 52.3937 20.793C52.4459 20.8253 52.4901 20.8657 52.5343 20.9062C52.6186 20.9911 52.695 21.0881 52.7512 21.2013C52.7833 21.2539 52.8074 21.3145 52.8275 21.3752C52.8918 21.5571 52.9079 21.7471 52.8757 21.9291C52.8798 21.9331 52.8798 21.9372 52.8757 21.9412C52.8757 21.9412 52.8757 21.9425 52.8757 21.9452C52.8677 22.0018 52.8556 22.0625 52.8356 22.115C52.8195 22.1636 52.8034 22.2121 52.7793 22.2565C52.7351 22.3617 52.6709 22.4587 52.5905 22.5436C52.5704 22.5679 52.5504 22.5921 52.5263 22.6123C53.6992 22.7417 54.8681 22.9236 56.025 23.1622C57.676 23.4978 59.3229 23.9223 60.8975 24.4519C62.4722 24.9735 63.9785 25.6042 65.4768 26.3481C66.9792 27.088 68.4735 27.937 70.0802 28.9518C70.3132 29.0973 70.5502 29.2469 70.7912 29.4006C70.7671 26.5422 70.7551 21.8482 70.7631 19.3456ZM18.5511 42.8881C18.4707 42.8598 18.3944 42.8275 18.3221 42.7911C18.298 42.783 18.2779 42.7749 18.2578 42.7628C18.2217 42.7466 18.1815 42.7264 18.1414 42.7102C17.9566 42.6293 17.7798 42.5404 17.6031 42.4474C17.4545 42.3746 17.3058 42.2938 17.1612 42.2048C16.8881 42.0512 16.623 41.8814 16.3619 41.6995C16.3498 41.6914 16.3378 41.6873 16.3257 41.6752C16.3177 41.6712 16.3056 41.6671 16.2976 41.655C16.2896 41.655 16.2775 41.6469 16.2695 41.6388C16.2614 42.4717 16.2534 43.3045 16.2413 44.1374L18.2337 45.1967C18.286 44.6266 18.3623 44.0606 18.4507 43.4946C18.4828 43.2924 18.5189 43.0943 18.5591 42.8921C18.5551 42.8921 18.5511 42.8881 18.5511 42.8881ZM70.7631 19.3456L66.0151 16.5761L61.2872 13.7824C59.7125 14.6759 58.1339 15.5694 56.5552 16.4467C54.9886 17.2958 53.2292 18.351 51.755 19.0868L51.7309 20.5747C51.7871 20.5747 51.8434 20.5787 51.8996 20.5908C51.9599 20.5989 52.0201 20.611 52.0764 20.6313C52.1326 20.6474 52.1888 20.6717 52.2411 20.7C52.2933 20.7242 52.3455 20.7566 52.3937 20.793C52.4459 20.8253 52.4901 20.8657 52.5343 20.9062C52.6186 20.9911 52.695 21.0881 52.7512 21.2013C52.7833 21.2539 52.8074 21.3145 52.8275 21.3752C52.8918 21.5571 52.9079 21.7471 52.8757 21.9291C52.8798 21.9331 52.8798 21.9372 52.8757 21.9412C52.8757 21.9412 52.8757 21.9425 52.8757 21.9452C52.8677 22.0018 52.8556 22.0625 52.8356 22.115C52.8195 22.1636 52.8034 22.2121 52.7793 22.2565C52.7351 22.3617 52.6709 22.4587 52.5905 22.5436C52.5704 22.5679 52.5504 22.5921 52.5263 22.6123C53.6992 22.7417 54.8681 22.9236 56.025 23.1622C57.676 23.4978 59.3229 23.9223 60.8975 24.4519C62.4722 24.9735 63.9785 25.6042 65.4768 26.3481C66.9792 27.088 68.4735 27.937 70.0802 28.9518C70.3132 29.0973 70.5502 29.2469 70.7912 29.4006C70.7671 26.5422 70.7551 21.8482 70.7631 19.3456ZM18.5511 42.8881C18.4707 42.8598 18.3944 42.8275 18.3221 42.7911C18.298 42.783 18.2779 42.7749 18.2578 42.7628C18.2217 42.7466 18.1815 42.7264 18.1414 42.7102C17.9566 42.6293 17.7798 42.5404 17.6031 42.4474C17.4545 42.3746 17.3058 42.2938 17.1612 42.2048C16.8881 42.0512 16.623 41.8814 16.3619 41.6995C16.3498 41.6914 16.3378 41.6873 16.3257 41.6752C16.3177 41.6712 16.3056 41.6671 16.2976 41.655C16.2896 41.655 16.2775 41.6469 16.2695 41.6388C16.2614 42.4717 16.2534 43.3045 16.2413 44.1374L18.2337 45.1967C18.286 44.6266 18.3623 44.0606 18.4507 43.4946C18.4828 43.2924 18.5189 43.0943 18.5591 42.8921C18.5551 42.8921 18.5511 42.8881 18.5511 42.8881ZM70.7631 19.3456L66.0151 16.5761L61.2872 13.7824C59.7125 14.6759 58.1339 15.5694 56.5552 16.4467C54.9886 17.2958 53.2292 18.351 51.755 19.0868L51.7309 20.5747C51.7871 20.5747 51.8434 20.5787 51.8996 20.5908C51.9599 20.5989 52.0201 20.611 52.0764 20.6313C52.1326 20.6474 52.1888 20.6717 52.2411 20.7C52.2933 20.7242 52.3455 20.7566 52.3937 20.793C52.4459 20.8253 52.4901 20.8657 52.5343 20.9062C52.6186 20.9911 52.695 21.0881 52.7512 21.2013C52.7833 21.2539 52.8074 21.3145 52.8275 21.3752C52.8918 21.5571 52.9079 21.7471 52.8757 21.9291C52.8798 21.9331 52.8798 21.9372 52.8757 21.9412C52.8757 21.9412 52.8757 21.9425 52.8757 21.9452C52.8677 22.0018 52.8556 22.0625 52.8356 22.115C52.8195 22.1636 52.8034 22.2121 52.7793 22.2565C52.7351 22.3617 52.6709 22.4587 52.5905 22.5436C52.5704 22.5679 52.5504 22.5921 52.5263 22.6123C53.6992 22.7417 54.8681 22.9236 56.025 23.1622C57.676 23.4978 59.3229 23.9223 60.8975 24.4519C62.4722 24.9735 63.9785 25.6042 65.4768 26.3481C66.9792 27.088 68.4735 27.937 70.0802 28.9518C70.3132 29.0973 70.5502 29.2469 70.7912 29.4006C70.7671 26.5422 70.7551 21.8482 70.7631 19.3456ZM18.5511 42.8881C18.4707 42.8598 18.3944 42.8275 18.3221 42.7911C18.298 42.783 18.2779 42.7749 18.2578 42.7628C18.2217 42.7466 18.1815 42.7264 18.1414 42.7102C17.9566 42.6293 17.7798 42.5404 17.6031 42.4474C17.4545 42.3746 17.3058 42.2938 17.1612 42.2048C16.8881 42.0512 16.623 41.8814 16.3619 41.6995C16.3498 41.6914 16.3378 41.6873 16.3257 41.6752C16.3177 41.6712 16.3056 41.6671 16.2976 41.655C16.2896 41.655 16.2775 41.6469 16.2695 41.6388C16.2614 42.4717 16.2534 43.3045 16.2413 44.1374L18.2337 45.1967C18.286 44.6266 18.3623 44.0606 18.4507 43.4946C18.4828 43.2924 18.5189 43.0943 18.5591 42.8921C18.5551 42.8921 18.5511 42.8881 18.5511 42.8881ZM70.7631 19.3456L66.0151 16.5761L61.2872 13.7824C59.7125 14.6759 58.1339 15.5694 56.5552 16.4467C54.9886 17.2958 53.2292 18.351 51.755 19.0868L51.7309 20.5747C51.7871 20.5747 51.8434 20.5787 51.8996 20.5908C51.9599 20.5989 52.0201 20.611 52.0764 20.6313C52.1326 20.6474 52.1888 20.6717 52.2411 20.7C52.2933 20.7242 52.3455 20.7566 52.3937 20.793C52.4459 20.8253 52.4901 20.8657 52.5343 20.9062C52.6186 20.9911 52.695 21.0881 52.7512 21.2013C52.7833 21.2539 52.8074 21.3145 52.8275 21.3752C52.8918 21.5571 52.9079 21.7471 52.8757 21.9291C52.8798 21.9331 52.8798 21.9372 52.8757 21.9412C52.8757 21.9412 52.8757 21.9425 52.8757 21.9452C52.8677 22.0018 52.8556 22.0625 52.8356 22.115C52.8195 22.1636 52.8034 22.2121 52.7793 22.2565C52.7351 22.3617 52.6709 22.4587 52.5905 22.5436C52.5704 22.5679 52.5504 22.5921 52.5263 22.6123C53.6992 22.7417 54.8681 22.9236 56.025 23.1622C57.676 23.4978 59.3229 23.9223 60.8975 24.4519C62.4722 24.9735 63.9785 25.6042 65.4768 26.3481C66.9792 27.088 68.4735 27.937 70.0802 28.9518C70.3132 29.0973 70.5502 29.2469 70.7912 29.4006C70.7671 26.5422 70.7551 21.8482 70.7631 19.3456ZM18.5511 42.8881C18.4707 42.8598 18.3944 42.8275 18.3221 42.7911C18.298 42.783 18.2779 42.7749 18.2578 42.7628C18.2217 42.7466 18.1815 42.7264 18.1414 42.7102C17.9566 42.6293 17.7798 42.5404 17.6031 42.4474C17.4545 42.3746 17.3058 42.2938 17.1612 42.2048C16.8881 42.0512 16.623 41.8814 16.3619 41.6995C16.3498 41.6914 16.3378 41.6873 16.3257 41.6752C16.3177 41.6712 16.3056 41.6671 16.2976 41.655C16.2896 41.655 16.2775 41.6469 16.2695 41.6388C16.2614 42.4717 16.2534 43.3045 16.2413 44.1374L18.2337 45.1967C18.286 44.6266 18.3623 44.0606 18.4507 43.4946C18.4828 43.2924 18.5189 43.0943 18.5591 42.8921C18.5551 42.8921 18.5511 42.8881 18.5511 42.8881ZM70.7631 19.3456L66.0151 16.5761L61.2872 13.7824C59.7125 14.6759 58.1339 15.5694 56.5552 16.4467C54.9886 17.2958 53.2292 18.351 51.755 19.0868L51.7309 20.5747C51.7871 20.5747 51.8434 20.5787 51.8996 20.5908C51.9599 20.5989 52.0201 20.611 52.0764 20.6313C52.1326 20.6474 52.1888 20.6717 52.2411 20.7C52.2933 20.7242 52.3455 20.7566 52.3937 20.793C52.4459 20.8253 52.4901 20.8657 52.5343 20.9062C52.6186 20.9911 52.695 21.0881 52.7512 21.2013C52.7833 21.2539 52.8074 21.3145 52.8275 21.3752C52.8918 21.5571 52.9079 21.7471 52.8757 21.9291C52.8798 21.9331 52.8798 21.9372 52.8757 21.9412C52.8757 21.9412 52.8757 21.9425 52.8757 21.9452C52.8677 22.0018 52.8556 22.0625 52.8356 22.115C52.8195 22.1636 52.8034 22.2121 52.7793 22.2565C52.7351 22.3617 52.6709 22.4587 52.5905 22.5436C52.5704 22.5679 52.5504 22.5921 52.5263 22.6123C53.6992 22.7417 54.8681 22.9236 56.025 23.1622C57.676 23.4978 59.3229 23.9223 60.8975 24.4519C62.4722 24.9735 63.9785 25.6042 65.4768 26.3481C66.9792 27.088 68.4735 27.937 70.0802 28.9518C70.3132 29.0973 70.5502 29.2469 70.7912 29.4006C70.7671 26.5422 70.7551 21.8482 70.7631 19.3456ZM18.5511 42.8881C18.4707 42.8598 18.3944 42.8275 18.3221 42.7911C18.298 42.783 18.2779 42.7749 18.2578 42.7628C18.2217 42.7466 18.1815 42.7264 18.1414 42.7102C17.9566 42.6293 17.7798 42.5404 17.6031 42.4474C17.4545 42.3746 17.3058 42.2938 17.1612 42.2048C16.8881 42.0512 16.623 41.8814 16.3619 41.6995C16.3498 41.6914 16.3378 41.6873 16.3257 41.6752C16.3177 41.6712 16.3056 41.6671 16.2976 41.655C16.2896 41.655 16.2775 41.6469 16.2695 41.6388C16.2614 42.4717 16.2534 43.3045 16.2413 44.1374L18.2337 45.1967C18.286 44.6266 18.3623 44.0606 18.4507 43.4946C18.4828 43.2924 18.5189 43.0943 18.5591 42.8921C18.5551 42.8921 18.5511 42.8881 18.5511 42.8881ZM70.7631 19.3456L66.0151 16.5761L61.2872 13.7824C59.7125 14.6759 58.1339 15.5694 56.5552 16.4467C54.9886 17.2958 53.2292 18.351 51.755 19.0868L51.7309 20.5747C51.7871 20.5747 51.8434 20.5787 51.8996 20.5908C51.9599 20.5989 52.0201 20.611 52.0764 20.6313C52.1326 20.6474 52.1888 20.6717 52.2411 20.7C52.2933 20.7242 52.3455 20.7566 52.3937 20.793C52.4459 20.8253 52.4901 20.8657 52.5343 20.9062C52.6186 20.9911 52.695 21.0881 52.7512 21.2013C52.7833 21.2539 52.8074 21.3145 52.8275 21.3752C52.8918 21.5571 52.9079 21.7471 52.8757 21.9291C52.8798 21.9331 52.8798 21.9372 52.8757 21.9412C52.8757 21.9412 52.8757 21.9425 52.8757 21.9452C52.8677 22.0018 52.8556 22.0625 52.8356 22.115C52.8195 22.1636 52.8034 22.2121 52.7793 22.2565C52.7351 22.3617 52.6709 22.4587 52.5905 22.5436C52.5704 22.5679 52.5504 22.5921 52.5263 22.6123C53.6992 22.7417 54.8681 22.9236 56.025 23.1622C57.676 23.4978 59.3229 23.9223 60.8975 24.4519C62.4722 24.9735 63.9785 25.6042 65.4768 26.3481C66.9792 27.088 68.4735 27.937 70.0802 28.9518C70.3132 29.0973 70.5502 29.2469 70.7912 29.4006C70.7671 26.5422 70.7551 21.8482 70.7631 19.3456ZM18.5511 42.8881C18.4707 42.8598 18.3944 42.8275 18.3221 42.7911C18.298 42.783 18.2779 42.7749 18.2578 42.7628C18.2217 42.7466 18.1815 42.7264 18.1414 42.7102C17.9566 42.6293 17.7798 42.5404 17.6031 42.4474C17.4545 42.3746 17.3058 42.2938 17.1612 42.2048C16.8881 42.0512 16.623 41.8814 16.3619 41.6995C16.3498 41.6914 16.3378 41.6873 16.3257 41.6752C16.3177 41.6712 16.3056 41.6671 16.2976 41.655C16.2896 41.655 16.2775 41.6469 16.2695 41.6388C16.2614 42.4717 16.2534 43.3045 16.2413 44.1374L18.2337 45.1967C18.286 44.6266 18.3623 44.0606 18.4507 43.4946C18.4828 43.2924 18.5189 43.0943 18.5591 42.8921C18.5551 42.8921 18.5511 42.8881 18.5511 42.8881ZM222.466 64.0331C221.948 64.9751 221.418 65.901 220.872 66.8188C220.321 67.7406 219.775 68.6422 219.205 69.5518C218.638 70.4656 218.072 71.3672 217.493 72.2526C216.349 74.0275 215.16 75.7255 213.862 77.3104C213.211 78.1069 212.549 78.8751 211.862 79.6351C211.155 80.4235 210.46 81.1715 209.749 81.8831C209.54 82.0893 209.331 82.2955 209.118 82.4936C209.118 82.5016 209.114 82.5017 209.11 82.5057C207.881 83.6822 206.596 84.7577 205.266 85.7442C204.945 85.9787 204.623 86.2051 204.294 86.4274C204.274 86.4436 204.25 86.4598 204.226 86.4759C203.362 87.0662 202.474 87.612 201.57 88.1174C201.546 88.1295 201.522 88.1417 201.502 88.1538C201.116 88.3681 200.727 88.5702 200.333 88.7683C198.622 89.6255 196.879 90.3573 195.059 90.9516C194.987 90.9758 194.918 90.996 194.846 91.0203C194.83 91.0203 194.81 91.0324 194.794 91.0365C193.966 91.3033 193.119 91.5459 192.215 91.7966L190.821 92.1524L189.419 92.4556C187.547 92.8356 185.667 93.1146 183.779 93.2601C181.887 93.4138 179.995 93.434 178.063 93.3612C177.212 93.3289 176.348 93.2804 175.44 93.2238C175.392 93.2238 175.344 93.2197 175.292 93.2157C175.219 93.2116 175.147 93.2076 175.071 93.2035C174.05 93.1469 173.122 93.0661 172.195 92.961C171.532 92.8841 170.873 92.7912 170.222 92.682C170.206 92.682 170.19 92.6779 170.174 92.6739C169.029 92.4879 167.896 92.2534 166.772 91.9745C166.31 91.8572 165.844 91.7319 165.374 91.5904C165.354 91.5863 165.338 91.5823 165.318 91.5742C164.076 91.2063 162.823 90.7696 161.586 90.2926C159.863 89.6174 158.175 88.8452 156.545 87.9799C154.91 87.1188 153.331 86.1889 151.845 85.162C151.487 84.9153 151.134 84.6647 150.78 84.4059C150.76 84.3938 150.74 84.3817 150.72 84.3655C149.623 83.565 148.539 82.7078 147.382 81.7577L146.217 80.7874C145.852 80.4801 145.494 80.1729 145.141 79.8616C144.438 79.2349 143.743 78.5961 143.048 77.9411C141.666 76.619 140.296 75.2202 138.942 73.7606C137.589 72.3051 136.239 70.8052 134.913 69.2648L132.937 66.9401C132.294 66.1678 131.664 65.4077 131.049 64.6355C129.82 63.1032 128.579 61.4698 127.293 59.7758C126.012 58.0818 124.694 56.3756 123.385 54.6695C122.674 53.7477 121.967 52.8299 121.264 51.9202C121.248 51.904 121.236 51.8879 121.224 51.8717C120.212 50.5658 119.203 49.272 118.191 47.9783C118.171 47.9581 118.159 47.9378 118.143 47.9176L116.48 45.795C116.46 45.7748 116.444 45.7546 116.428 45.7304C116.11 45.326 115.789 44.9217 115.472 44.5174C114.459 43.2318 113.447 41.9461 112.403 40.6523C112.077 40.244 111.748 39.8356 111.414 39.4273C111.402 39.4151 111.394 39.399 111.382 39.3868C111.358 39.3585 111.338 39.3343 111.318 39.306C110.643 38.4852 109.972 37.6645 109.269 36.8236L108.157 35.5258L108.121 35.4853L107.851 35.1781H107.847L107.044 34.2482C106.136 33.2131 105.212 32.166 104.264 31.1148C104.24 31.0825 104.208 31.0461 104.172 31.0097C103.593 30.3588 102.999 29.7078 102.396 29.0529C102.34 28.9922 102.288 28.9316 102.232 28.875C101.718 28.317 101.199 27.7591 100.669 27.2052C100.649 27.181 100.629 27.1607 100.609 27.1405C99.7332 26.2147 98.8294 25.2888 97.9015 24.363C97.4998 23.9667 97.0941 23.5705 96.6844 23.1784C96.6161 23.1096 96.5438 23.0409 96.4715 22.9722C95.9292 22.4587 95.3789 21.9452 94.8165 21.4358C94.7482 21.3711 94.6799 21.3105 94.6076 21.2458C94.6036 21.2418 94.5996 21.2377 94.5915 21.2296C94.5192 21.1649 94.4469 21.1002 94.3706 21.0315C92.0247 18.9291 89.5342 16.9036 86.9554 15.0559C86.4693 14.7001 85.9752 14.3565 85.4811 14.0209L84.031 13.0385C83.1232 12.436 82.1712 11.8053 81.167 11.1706C79.1746 9.90107 76.9813 8.61134 74.6595 7.47121C74.531 7.40652 74.4025 7.34588 74.2739 7.28523C74.2056 7.25289 74.1413 7.22054 74.0731 7.1882C73.2255 6.7839 72.3659 6.39981 71.4942 6.03594C71.4741 6.02785 71.45 6.01572 71.4259 6.00764C70.5623 5.64781 69.6826 5.30819 68.8029 4.99688C68.7426 4.97262 68.6864 4.95241 68.6261 4.93219C68.2284 4.79069 67.8308 4.65322 67.4291 4.52385C64.9627 3.71524 62.4802 3.0724 59.9536 2.59532C57.1457 2.06973 54.3138 1.7382 51.4618 1.61287H51.4216C49.8229 1.54009 48.2241 1.53605 46.6133 1.60478C46.5732 1.60478 46.537 1.60478 46.5009 1.60883C45.8662 1.63308 45.2315 1.66947 44.5928 1.71799C43.9421 1.77055 43.2873 1.83119 42.6326 1.90801L41.6082 2.03334C41.2628 2.08186 40.9254 2.13442 40.604 2.18698C39.3025 2.39317 38.0693 2.64384 36.8361 2.91877C34.3778 3.4767 31.9556 4.1721 29.5374 5.0454C27.1232 5.91869 24.7171 6.96583 22.331 8.25556C21.2223 8.87414 20.0896 9.52102 19.0331 10.2326C19.009 10.2447 18.9889 10.2609 18.9688 10.2771C18.9166 10.3094 18.8684 10.3418 18.8162 10.3781C17.6874 11.1342 16.623 11.9145 15.5585 12.7716C15.2893 12.9859 15.0242 13.2042 14.739 13.4428C14.4337 13.7015 14.1967 13.9158 13.9316 14.1503C13.4174 14.6071 12.9153 15.0842 12.4253 15.5653C11.4411 16.5316 10.5092 17.5424 9.62145 18.6017C8.73371 19.6609 7.89417 20.7728 7.09882 21.9452C6.31953 23.1096 5.6005 24.2902 4.94173 25.5152C2.29457 30.3709 0.671733 35.8613 0.173634 41.3154C-0.0352464 43.5552 -0.0513141 45.8112 0.11338 48.043C0.109363 48.0672 0.11338 48.0915 0.11338 48.1157C0.145515 48.5888 0.189702 49.0618 0.237905 49.5308C0.390548 50.9499 0.611479 52.3488 0.904715 53.7396L0.908732 53.7436C1.11761 54.7584 1.37068 55.757 1.66793 56.7516C1.67597 56.7921 1.68802 56.8284 1.70408 56.8648C1.76835 57.0912 1.83664 57.3136 1.90895 57.54C2.32269 58.85 2.80874 60.1518 3.38718 61.4577C3.95356 62.7272 4.56815 63.9159 5.22693 65.0722C6.45209 67.215 7.85802 69.2405 9.43667 71.1367C9.45675 71.165 9.48086 71.1933 9.50898 71.2216C9.60137 71.3348 9.69375 71.448 9.79016 71.5612C10.6417 72.572 11.5576 73.5261 12.4895 74.452C13.4335 75.3657 14.4177 76.235 15.4299 77.0557C17.4464 78.6769 19.6236 80.1244 21.7044 81.3049L22.4555 81.7294L23.271 82.1701C23.6646 82.3844 24.0623 82.5946 24.464 82.7968H24.468C24.468 82.7968 24.5002 82.813 24.5162 82.8211C24.6568 82.8938 24.7974 82.9626 24.938 83.0313C25.7173 83.4194 26.5086 83.7793 27.308 84.1189C27.3281 84.1269 27.3441 84.135 27.3602 84.1431H27.3642C27.6976 84.2846 28.035 84.4221 28.3685 84.5555C30.5095 85.4207 32.7027 86.0919 34.7634 86.6336C34.7674 86.6377 34.7714 86.6377 34.7714 86.6377C34.9281 86.6781 35.0848 86.7185 35.2374 86.759L36.8402 87.1673C37.2378 87.2603 37.6516 87.3695 38.0693 87.4624H38.0734C38.1296 87.4786 38.1778 87.4907 38.234 87.5029C38.3385 87.5271 38.4389 87.5514 38.5433 87.5716C39.6882 87.8304 40.837 88.0608 41.9899 88.2589C44.2956 88.6592 46.6133 88.9503 48.9432 89.0999C49.8791 89.1605 50.811 89.205 51.743 89.2252C51.743 89.2252 51.7443 89.2252 51.747 89.2252C51.8313 89.2333 51.9117 89.2333 51.992 89.2333C52.6066 89.2495 53.2212 89.2535 53.8318 89.2495C53.8559 89.2495 53.8759 89.2495 53.896 89.2495C54.5669 89.2495 55.2337 89.2333 55.8965 89.2131C57.0333 89.1767 58.154 89.116 59.2225 89.0514C60.3352 88.9907 61.4559 88.9058 62.5686 88.7966C63.6813 88.6875 64.7899 88.5621 65.8986 88.4206L67.5576 88.1983H67.5616L67.6259 88.1902L68.4895 88.0649L69.309 87.9031L72.5587 87.2482H72.5788L72.9363 87.1713L73.3701 87.0864L74.2257 86.8843C74.7921 86.7468 75.3103 86.6134 75.8526 86.4679C79.6727 85.4531 83.4325 84.2442 87.0759 82.7523C87.5298 82.5663 87.9797 82.3763 88.4296 82.1823C88.6987 82.065 88.9678 81.9478 89.2329 81.8305C90.9924 81.0583 92.7237 80.2335 94.4068 79.3117C96.351 78.2605 98.2269 77.1325 100.051 75.9439C103.505 73.6798 106.783 71.1771 109.788 68.4117C112.125 71.1367 114.451 73.8738 117.082 76.7848C117.858 77.6298 118.641 78.4708 119.424 79.2834C120.207 80.092 120.995 80.8844 121.778 81.6769C123.365 83.2577 124.984 84.8304 126.667 86.3708C128.35 87.9112 130.101 89.4274 131.933 90.9071C132.853 91.647 133.797 92.3747 134.761 93.0782C135.243 93.4299 135.729 93.7776 136.211 94.1132L137.601 95.0633C138.866 95.9285 140.228 96.822 141.646 97.6711C141.65 97.6751 141.654 97.6751 141.662 97.6792C142.333 98.0835 143.016 98.4756 143.711 98.8476C145.872 100.024 148.089 101.047 150.334 101.941C152.584 102.83 154.882 103.578 157.211 104.201C157.758 104.346 158.308 104.484 158.858 104.609C158.886 104.617 158.915 104.625 158.943 104.629H158.947C160.726 105.046 162.534 105.377 164.402 105.608C166.812 105.907 169.254 106.032 171.66 105.992C172.468 105.979 173.279 105.947 174.058 105.903C174.191 105.895 174.32 105.887 174.448 105.878C174.693 105.862 174.93 105.846 175.167 105.83C176.252 105.757 177.392 105.664 178.553 105.539C179.867 105.401 181.188 105.219 182.502 104.993C182.502 104.993 182.53 104.989 182.542 104.985C185.872 104.411 189.178 103.55 192.327 102.365C192.364 102.353 192.4 102.337 192.436 102.321C192.436 102.321 192.439 102.319 192.444 102.317C192.649 102.24 192.854 102.159 193.059 102.078C193.364 101.957 193.665 101.831 193.97 101.71L195.585 101.003C196.581 100.542 197.642 100.044 198.682 99.4985C199.068 99.2964 199.457 99.0902 199.839 98.8719C199.871 98.8597 199.903 98.8395 199.931 98.8193H199.935C201.59 97.9015 203.197 96.8786 204.7 95.7264C206.588 94.2992 208.339 92.7224 209.946 91.0243C211.552 89.3303 212.986 87.4827 214.252 85.5865C214.26 85.5744 214.268 85.5582 214.28 85.5461C214.288 85.5299 214.3 85.5137 214.308 85.4975C214.923 84.5798 215.489 83.6499 216.031 82.7442C216.606 81.786 217.16 80.7955 217.666 79.7928C218.686 77.7875 219.558 75.7336 220.313 73.6757C220.687 72.6488 221.04 71.6219 221.386 70.599C221.731 69.5761 222.081 68.537 222.382 67.4939C222.691 66.4509 222.989 65.4077 223.258 64.3566C223.523 63.3054 223.764 62.2501 223.993 61.1949C223.495 62.1531 222.985 63.0992 222.458 64.0331H222.466ZM98.6406 73.1178C94.6839 74.6097 90.7152 75.77 86.6742 76.6312C85.3205 76.9101 83.9627 77.1649 82.601 77.3913C82.5648 77.3994 82.5247 77.4074 82.4885 77.4115C79.8253 77.8562 77.146 78.1918 74.4667 78.402C73.9606 78.4425 73.4304 78.4788 72.9483 78.5112L72.2293 78.5516L71.454 78.5799L68.369 78.7012L67.642 78.7255H67.5536L67.3246 78.7133H66.943L65.4166 78.6689C64.4003 78.6325 63.384 78.584 62.3718 78.5193C61.3555 78.4465 60.3472 78.3737 59.335 78.2888C58.2745 78.2039 57.2703 78.115 56.2821 78.0058C54.3138 77.7875 52.4138 77.4802 50.5178 77.0759C48.6298 76.6676 46.758 76.1864 44.9222 75.6164C44.0023 75.3293 43.0905 75.018 42.1907 74.6905L40.833 74.1852L39.3949 73.6313C37.5351 72.9076 35.8881 72.1596 34.3215 71.3186C34.2573 71.2823 34.189 71.2459 34.1247 71.2095C34.0524 71.1731 33.9801 71.1327 33.9078 71.0922C33.2731 70.7405 32.6505 70.3726 32.0439 69.9764C31.6704 69.7378 31.3048 69.4993 30.9433 69.2405L29.7904 68.4279C28.268 67.3322 26.9906 66.2608 25.7936 65.0762C24.6166 63.8916 23.5562 62.6383 22.6242 61.3C22.2908 60.827 21.9735 60.3378 21.6722 59.8405C21.6361 59.7799 21.5999 59.7192 21.5638 59.6586C21.15 58.9551 20.7644 58.2354 20.4109 57.4996C20.4069 57.4915 20.4029 57.4834 20.3989 57.4753C20.3306 57.3379 20.2663 57.1964 20.202 57.0589C19.8646 56.3271 19.5593 55.5792 19.3143 54.8676C19.0853 54.1964 18.8845 53.4647 18.7198 52.7167C18.3904 51.2208 18.1815 49.6521 18.1414 48.1036C18.1132 47.1575 18.1454 46.2196 18.2257 45.2856C18.2297 45.2573 18.2337 45.229 18.2337 45.2007C18.286 44.6266 18.3623 44.0606 18.4507 43.4946C18.4828 43.2924 18.5189 43.0943 18.5591 42.8921C18.5712 42.8072 18.5872 42.7183 18.6073 42.6334C19.1496 39.9124 20.1699 37.3896 21.5999 35.0568C21.9896 34.418 22.4234 33.7994 22.8653 33.2091C23.3071 32.639 23.7892 32.069 24.3033 31.5191C24.8215 30.9693 25.3558 30.4315 25.9221 29.9302C26.2073 29.6795 26.4925 29.4329 26.7858 29.1944C26.9264 29.0812 27.0911 28.9437 27.1995 28.8669L27.6334 28.5435C28.252 28.0947 28.9308 27.6419 29.5896 27.2416C30.2484 26.8373 30.9072 26.5058 31.594 26.15C32.9839 25.4586 34.5144 24.8522 36.1211 24.3347C37.7319 23.8212 39.423 23.3886 41.1182 23.0409C41.9658 22.8751 42.8254 22.7255 43.6288 22.6164L44.2032 22.5476L44.7615 22.491C45.1672 22.4587 45.573 22.4304 45.9827 22.4061C46.1273 22.3981 46.2679 22.394 46.4125 22.39C46.4406 22.3859 46.4687 22.3859 46.4968 22.3859C47.8988 22.3334 49.3328 22.3536 50.7628 22.4466C50.8432 22.4506 50.9195 22.4587 50.9998 22.4627C51.51 22.5032 52.0161 22.5517 52.5263 22.6123C53.6992 22.7417 54.8681 22.9236 56.025 23.1622C57.676 23.4978 59.3229 23.9223 60.8975 24.4519C62.4722 24.9735 63.9785 25.6042 65.4768 26.3481C66.9792 27.088 68.4735 27.937 70.0802 28.9518C70.3132 29.0973 70.5502 29.2469 70.7912 29.4006C70.7993 29.4046 70.8113 29.4127 70.8194 29.4167C71.3898 29.7806 71.9722 30.1647 72.5788 30.565C73.0367 30.8601 73.3862 31.1067 73.7798 31.3695C74.1695 31.6283 74.5511 31.8911 74.9247 32.166C77.0135 33.6134 78.9858 35.1781 80.9179 36.8721C80.9581 36.9044 80.9983 36.9408 81.0384 36.9772C81.6289 37.4947 82.2154 38.0284 82.7978 38.5782C82.8742 38.6429 82.9505 38.7117 83.0228 38.7844C83.2035 38.9502 83.3843 39.124 83.5651 39.2939C84.963 40.62 86.3568 42.0189 87.7628 43.4743C88.3251 44.0606 88.8915 44.6589 89.4579 45.2614C89.4699 45.2735 89.482 45.2856 89.4981 45.3018C90.3336 46.1872 91.1731 47.0928 92.0287 48.0025L93.0972 49.1427L94.0693 50.2019C94.2943 50.4486 94.5192 50.7033 94.7442 50.958C94.7643 50.9822 94.7884 51.0065 94.8084 51.0308C95.2262 51.5038 95.652 51.989 96.0778 52.4782L100.195 57.2449L100.609 57.726L100.725 57.8635L102.344 59.7435L102.368 59.7718L108.518 66.9239C108.904 67.3686 109.285 67.8174 109.671 68.2662C106.048 70.1017 102.392 71.7513 98.6406 73.1178ZM18.5511 42.8881C18.4707 42.8598 18.3944 42.8275 18.3221 42.7911C18.298 42.783 18.2779 42.7749 18.2578 42.7628C18.2217 42.7466 18.1815 42.7264 18.1414 42.7102C17.9566 42.6293 17.7798 42.5404 17.6031 42.4474C17.4545 42.3746 17.3058 42.2938 17.1612 42.2048C16.8881 42.0512 16.623 41.8814 16.3619 41.6995C16.3498 41.6914 16.3378 41.6873 16.3257 41.6752C16.3177 41.6712 16.3056 41.6671 16.2976 41.655C16.2896 41.655 16.2775 41.6469 16.2695 41.6388C16.2614 42.4717 16.2534 43.3045 16.2413 44.1374L18.2337 45.1967C18.286 44.6266 18.3623 44.0606 18.4507 43.4946C18.4828 43.2924 18.5189 43.0943 18.5591 42.8921C18.5551 42.8921 18.5511 42.8881 18.5511 42.8881ZM70.7631 19.3456L66.0151 16.5761L61.2872 13.7824C59.7125 14.6759 58.1339 15.5694 56.5552 16.4467C54.9886 17.2958 53.2292 18.351 51.755 19.0868L51.7309 20.5747C51.7871 20.5747 51.8434 20.5787 51.8996 20.5908C51.9599 20.5989 52.0201 20.611 52.0764 20.6313C52.1326 20.6474 52.1888 20.6717 52.2411 20.7C52.2933 20.7242 52.3455 20.7566 52.3937 20.793C52.4459 20.8253 52.4901 20.8657 52.5343 20.9062C52.6186 20.9911 52.695 21.0881 52.7512 21.2013C52.7833 21.2539 52.8074 21.3145 52.8275 21.3752C52.8918 21.5571 52.9079 21.7471 52.8757 21.9291C52.8798 21.9331 52.8798 21.9372 52.8757 21.9412C52.8757 21.9412 52.8757 21.9425 52.8757 21.9452C52.8677 22.0018 52.8556 22.0625 52.8356 22.115C52.8195 22.1636 52.8034 22.2121 52.7793 22.2565C52.7351 22.3617 52.6709 22.4587 52.5905 22.5436C52.5704 22.5679 52.5504 22.5921 52.5263 22.6123C53.6992 22.7417 54.8681 22.9236 56.025 23.1622C57.676 23.4978 59.3229 23.9223 60.8975 24.4519C62.4722 24.9735 63.9785 25.6042 65.4768 26.3481C66.9792 27.088 68.4735 27.937 70.0802 28.9518C70.3132 29.0973 70.5502 29.2469 70.7912 29.4006C70.7671 26.5422 70.7551 21.8482 70.7631 19.3456ZM18.5511 42.8881C18.4707 42.8598 18.3944 42.8275 18.3221 42.7911C18.298 42.783 18.2779 42.7749 18.2578 42.7628C18.2217 42.7466 18.1815 42.7264 18.1414 42.7102C17.9566 42.6293 17.7798 42.5404 17.6031 42.4474C17.4545 42.3746 17.3058 42.2938 17.1612 42.2048C16.8881 42.0512 16.623 41.8814 16.3619 41.6995C16.3498 41.6914 16.3378 41.6873 16.3257 41.6752C16.3177 41.6712 16.3056 41.6671 16.2976 41.655C16.2896 41.655 16.2775 41.6469 16.2695 41.6388C16.2614 42.4717 16.2534 43.3045 16.2413 44.1374L18.2337 45.1967C18.286 44.6266 18.3623 44.0606 18.4507 43.4946C18.4828 43.2924 18.5189 43.0943 18.5591 42.8921C18.5551 42.8921 18.5511 42.8881 18.5511 42.8881ZM70.7631 19.3456L66.0151 16.5761L61.2872 13.7824C59.7125 14.6759 58.1339 15.5694 56.5552 16.4467C54.9886 17.2958 53.2292 18.351 51.755 19.0868L51.7309 20.5747C51.7871 20.5747 51.8434 20.5787 51.8996 20.5908C51.9599 20.5989 52.0201 20.611 52.0764 20.6313C52.1326 20.6474 52.1888 20.6717 52.2411 20.7C52.2933 20.7242 52.3455 20.7566 52.3937 20.793C52.4459 20.8253 52.4901 20.8657 52.5343 20.9062C52.6186 20.9911 52.695 21.0881 52.7512 21.2013C52.7833 21.2539 52.8074 21.3145 52.8275 21.3752C52.8918 21.5571 52.9079 21.7471 52.8757 21.9291C52.8798 21.9331 52.8798 21.9372 52.8757 21.9412C52.8757 21.9412 52.8757 21.9425 52.8757 21.9452C52.8677 22.0018 52.8556 22.0625 52.8356 22.115C52.8195 22.1636 52.8034 22.2121 52.7793 22.2565C52.7351 22.3617 52.6709 22.4587 52.5905 22.5436C52.5704 22.5679 52.5504 22.5921 52.5263 22.6123C53.6992 22.7417 54.8681 22.9236 56.025 23.1622C57.676 23.4978 59.3229 23.9223 60.8975 24.4519C62.4722 24.9735 63.9785 25.6042 65.4768 26.3481C66.9792 27.088 68.4735 27.937 70.0802 28.9518C70.3132 29.0973 70.5502 29.2469 70.7912 29.4006C70.7671 26.5422 70.7551 21.8482 70.7631 19.3456ZM18.5511 42.8881C18.4707 42.8598 18.3944 42.8275 18.3221 42.7911C18.298 42.783 18.2779 42.7749 18.2578 42.7628C18.2217 42.7466 18.1815 42.7264 18.1414 42.7102C17.9566 42.6293 17.7798 42.5404 17.6031 42.4474C17.4545 42.3746 17.3058 42.2938 17.1612 42.2048C16.8881 42.0512 16.623 41.8814 16.3619 41.6995C16.3498 41.6914 16.3378 41.6873 16.3257 41.6752C16.3177 41.6712 16.3056 41.6671 16.2976 41.655C16.2896 41.655 16.2775 41.6469 16.2695 41.6388C16.2614 42.4717 16.2534 43.3045 16.2413 44.1374L18.2337 45.1967C18.286 44.6266 18.3623 44.0606 18.4507 43.4946C18.4828 43.2924 18.5189 43.0943 18.5591 42.8921C18.5551 42.8921 18.5511 42.8881 18.5511 42.8881ZM70.7631 19.3456L66.0151 16.5761L61.2872 13.7824C59.7125 14.6759 58.1339 15.5694 56.5552 16.4467C54.9886 17.2958 53.2292 18.351 51.755 19.0868L51.7309 20.5747C51.7871 20.5747 51.8434 20.5787 51.8996 20.5908C51.9599 20.5989 52.0201 20.611 52.0764 20.6313C52.1326 20.6474 52.1888 20.6717 52.2411 20.7C52.2933 20.7242 52.3455 20.7566 52.3937 20.793C52.4459 20.8253 52.4901 20.8657 52.5343 20.9062C52.6186 20.9911 52.695 21.0881 52.7512 21.2013C52.7833 21.2539 52.8074 21.3145 52.8275 21.3752C52.8918 21.5571 52.9079 21.7471 52.8757 21.9291C52.8798 21.9331 52.8798 21.9372 52.8757 21.9412C52.8757 21.9412 52.8757 21.9425 52.8757 21.9452C52.8677 22.0018 52.8556 22.0625 52.8356 22.115C52.8195 22.1636 52.8034 22.2121 52.7793 22.2565C52.7351 22.3617 52.6709 22.4587 52.5905 22.5436C52.5704 22.5679 52.5504 22.5921 52.5263 22.6123C53.6992 22.7417 54.8681 22.9236 56.025 23.1622C57.676 23.4978 59.3229 23.9223 60.8975 24.4519C62.4722 24.9735 63.9785 25.6042 65.4768 26.3481C66.9792 27.088 68.4735 27.937 70.0802 28.9518C70.3132 29.0973 70.5502 29.2469 70.7912 29.4006C70.7671 26.5422 70.7551 21.8482 70.7631 19.3456ZM18.5511 42.8881C18.4707 42.8598 18.3944 42.8275 18.3221 42.7911C18.298 42.783 18.2779 42.7749 18.2578 42.7628C18.2217 42.7466 18.1815 42.7264 18.1414 42.7102C17.9566 42.6293 17.7798 42.5404 17.6031 42.4474C17.4545 42.3746 17.3058 42.2938 17.1612 42.2048C16.8881 42.0512 16.623 41.8814 16.3619 41.6995C16.3498 41.6914 16.3378 41.6873 16.3257 41.6752C16.3177 41.6712 16.3056 41.6671 16.2976 41.655C16.2896 41.655 16.2775 41.6469 16.2695 41.6388C16.2614 42.4717 16.2534 43.3045 16.2413 44.1374L18.2337 45.1967C18.286 44.6266 18.3623 44.0606 18.4507 43.4946C18.4828 43.2924 18.5189 43.0943 18.5591 42.8921C18.5551 42.8921 18.5511 42.8881 18.5511 42.8881ZM70.7631 19.3456L66.0151 16.5761L61.2872 13.7824C59.7125 14.6759 58.1339 15.5694 56.5552 16.4467C54.9886 17.2958 53.2292 18.351 51.755 19.0868L51.7309 20.5747C51.7871 20.5747 51.8434 20.5787 51.8996 20.5908C51.9599 20.5989 52.0201 20.611 52.0764 20.6313C52.1326 20.6474 52.1888 20.6717 52.2411 20.7C52.2933 20.7242 52.3455 20.7566 52.3937 20.793C52.4459 20.8253 52.4901 20.8657 52.5343 20.9062C52.6186 20.9911 52.695 21.0881 52.7512 21.2013C52.7833 21.2539 52.8074 21.3145 52.8275 21.3752C52.8918 21.5571 52.9079 21.7471 52.8757 21.9291C52.8798 21.9331 52.8798 21.9372 52.8757 21.9412C52.8757 21.9412 52.8757 21.9425 52.8757 21.9452C52.8677 22.0018 52.8556 22.0625 52.8356 22.115C52.8195 22.1636 52.8034 22.2121 52.7793 22.2565C52.7351 22.3617 52.6709 22.4587 52.5905 22.5436C52.5704 22.5679 52.5504 22.5921 52.5263 22.6123C53.6992 22.7417 54.8681 22.9236 56.025 23.1622C57.676 23.4978 59.3229 23.9223 60.8975 24.4519C62.4722 24.9735 63.9785 25.6042 65.4768 26.3481C66.9792 27.088 68.4735 27.937 70.0802 28.9518C70.3132 29.0973 70.5502 29.2469 70.7912 29.4006C70.7671 26.5422 70.7551 21.8482 70.7631 19.3456ZM18.5511 42.8881C18.4707 42.8598 18.3944 42.8275 18.3221 42.7911C18.298 42.783 18.2779 42.7749 18.2578 42.7628C18.2217 42.7466 18.1815 42.7264 18.1414 42.7102C17.9566 42.6293 17.7798 42.5404 17.6031 42.4474C17.4545 42.3746 17.3058 42.2938 17.1612 42.2048C16.8881 42.0512 16.623 41.8814 16.3619 41.6995C16.3498 41.6914 16.3378 41.6873 16.3257 41.6752C16.3177 41.6712 16.3056 41.6671 16.2976 41.655C16.2896 41.655 16.2775 41.6469 16.2695 41.6388C16.2614 42.4717 16.2534 43.3045 16.2413 44.1374L18.2337 45.1967C18.286 44.6266 18.3623 44.0606 18.4507 43.4946C18.4828 43.2924 18.5189 43.0943 18.5591 42.8921C18.5551 42.8921 18.5511 42.8881 18.5511 42.8881ZM70.7631 19.3456L66.0151 16.5761L61.2872 13.7824C59.7125 14.6759 58.1339 15.5694 56.5552 16.4467C54.9886 17.2958 53.2292 18.351 51.755 19.0868L51.7309 20.5747C51.7871 20.5747 51.8434 20.5787 51.8996 20.5908C51.9599 20.5989 52.0201 20.611 52.0764 20.6313C52.1326 20.6474 52.1888 20.6717 52.2411 20.7C52.2933 20.7242 52.3455 20.7566 52.3937 20.793C52.4459 20.8253 52.4901 20.8657 52.5343 20.9062C52.6186 20.9911 52.695 21.0881 52.7512 21.2013C52.7833 21.2539 52.8074 21.3145 52.8275 21.3752C52.8918 21.5571 52.9079 21.7471 52.8757 21.9291C52.8798 21.9331 52.8798 21.9372 52.8757 21.9412C52.8757 21.9412 52.8757 21.9425 52.8757 21.9452C52.8677 22.0018 52.8556 22.0625 52.8356 22.115C52.8195 22.1636 52.8034 22.2121 52.7793 22.2565C52.7351 22.3617 52.6709 22.4587 52.5905 22.5436C52.5704 22.5679 52.5504 22.5921 52.5263 22.6123C53.6992 22.7417 54.8681 22.9236 56.025 23.1622C57.676 23.4978 59.3229 23.9223 60.8975 24.4519C62.4722 24.9735 63.9785 25.6042 65.4768 26.3481C66.9792 27.088 68.4735 27.937 70.0802 28.9518C70.3132 29.0973 70.5502 29.2469 70.7912 29.4006C70.7671 26.5422 70.7551 21.8482 70.7631 19.3456ZM18.5511 42.8881C18.4707 42.8598 18.3944 42.8275 18.3221 42.7911C18.298 42.783 18.2779 42.7749 18.2578 42.7628C18.2217 42.7466 18.1815 42.7264 18.1414 42.7102C17.9566 42.6293 17.7798 42.5404 17.6031 42.4474C17.4545 42.3746 17.3058 42.2938 17.1612 42.2048C16.8881 42.0512 16.623 41.8814 16.3619 41.6995C16.3498 41.6914 16.3378 41.6873 16.3257 41.6752C16.3177 41.6712 16.3056 41.6671 16.2976 41.655C16.2896 41.655 16.2775 41.6469 16.2695 41.6388C16.2614 42.4717 16.2534 43.3045 16.2413 44.1374L18.2337 45.1967C18.286 44.6266 18.3623 44.0606 18.4507 43.4946C18.4828 43.2924 18.5189 43.0943 18.5591 42.8921C18.5551 42.8921 18.5511 42.8881 18.5511 42.8881ZM70.7631 19.3456L66.0151 16.5761L61.2872 13.7824C59.7125 14.6759 58.1339 15.5694 56.5552 16.4467C54.9886 17.2958 53.2292 18.351 51.755 19.0868L51.7309 20.5747C51.7871 20.5747 51.8434 20.5787 51.8996 20.5908C51.9599 20.5989 52.0201 20.611 52.0764 20.6313C52.1326 20.6474 52.1888 20.6717 52.2411 20.7C52.2933 20.7242 52.3455 20.7566 52.3937 20.793C52.4459 20.8253 52.4901 20.8657 52.5343 20.9062C52.6186 20.9911 52.695 21.0881 52.7512 21.2013C52.7833 21.2539 52.8074 21.3145 52.8275 21.3752C52.8918 21.5571 52.9079 21.7471 52.8757 21.9291C52.8798 21.9331 52.8798 21.9372 52.8757 21.9412C52.8757 21.9412 52.8757 21.9425 52.8757 21.9452C52.8677 22.0018 52.8556 22.0625 52.8356 22.115C52.8195 22.1636 52.8034 22.2121 52.7793 22.2565C52.7351 22.3617 52.6709 22.4587 52.5905 22.5436C52.5704 22.5679 52.5504 22.5921 52.5263 22.6123C53.6992 22.7417 54.8681 22.9236 56.025 23.1622C57.676 23.4978 59.3229 23.9223 60.8975 24.4519C62.4722 24.9735 63.9785 25.6042 65.4768 26.3481C66.9792 27.088 68.4735 27.937 70.0802 28.9518C70.3132 29.0973 70.5502 29.2469 70.7912 29.4006C70.7671 26.5422 70.7551 21.8482 70.7631 19.3456ZM18.5511 42.8881C18.4707 42.8598 18.3944 42.8275 18.3221 42.7911C18.298 42.783 18.2779 42.7749 18.2578 42.7628C18.2217 42.7466 18.1815 42.7264 18.1414 42.7102C17.9566 42.6293 17.7798 42.5404 17.6031 42.4474C17.4545 42.3746 17.3058 42.2938 17.1612 42.2048C16.8881 42.0512 16.623 41.8814 16.3619 41.6995C16.3498 41.6914 16.3378 41.6873 16.3257 41.6752C16.3177 41.6712 16.3056 41.6671 16.2976 41.655C16.2896 41.655 16.2775 41.6469 16.2695 41.6388C16.2614 42.4717 16.2534 43.3045 16.2413 44.1374L18.2337 45.1967C18.286 44.6266 18.3623 44.0606 18.4507 43.4946C18.4828 43.2924 18.5189 43.0943 18.5591 42.8921C18.5551 42.8921 18.5511 42.8881 18.5511 42.8881ZM70.7631 19.3456L66.0151 16.5761L61.2872 13.7824C59.7125 14.6759 58.1339 15.5694 56.5552 16.4467C54.9886 17.2958 53.2292 18.351 51.755 19.0868L51.7309 20.5747C51.7871 20.5747 51.8434 20.5787 51.8996 20.5908C51.9599 20.5989 52.0201 20.611 52.0764 20.6313C52.1326 20.6474 52.1888 20.6717 52.2411 20.7C52.2933 20.7242 52.3455 20.7566 52.3937 20.793C52.4459 20.8253 52.4901 20.8657 52.5343 20.9062C52.6186 20.9911 52.695 21.0881 52.7512 21.2013C52.7833 21.2539 52.8074 21.3145 52.8275 21.3752C52.8918 21.5571 52.9079 21.7471 52.8757 21.9291C52.8798 21.9331 52.8798 21.9372 52.8757 21.9412C52.8757 21.9412 52.8757 21.9425 52.8757 21.9452C52.8677 22.0018 52.8556 22.0625 52.8356 22.115C52.8195 22.1636 52.8034 22.2121 52.7793 22.2565C52.7351 22.3617 52.6709 22.4587 52.5905 22.5436C52.5704 22.5679 52.5504 22.5921 52.5263 22.6123C53.6992 22.7417 54.8681 22.9236 56.025 23.1622C57.676 23.4978 59.3229 23.9223 60.8975 24.4519C62.4722 24.9735 63.9785 25.6042 65.4768 26.3481C66.9792 27.088 68.4735 27.937 70.0802 28.9518C70.3132 29.0973 70.5502 29.2469 70.7912 29.4006C70.7671 26.5422 70.7551 21.8482 70.7631 19.3456ZM18.5511 42.8881C18.4707 42.8598 18.3944 42.8275 18.3221 42.7911C18.298 42.783 18.2779 42.7749 18.2578 42.7628C18.2217 42.7466 18.1815 42.7264 18.1414 42.7102C17.9566 42.6293 17.7798 42.5404 17.6031 42.4474C17.4545 42.3746 17.3058 42.2938 17.1612 42.2048C16.8881 42.0512 16.623 41.8814 16.3619 41.6995C16.3498 41.6914 16.3378 41.6873 16.3257 41.6752C16.3177 41.6712 16.3056 41.6671 16.2976 41.655C16.2896 41.655 16.2775 41.6469 16.2695 41.6388C16.2614 42.4717 16.2534 43.3045 16.2413 44.1374L18.2337 45.1967C18.286 44.6266 18.3623 44.0606 18.4507 43.4946C18.4828 43.2924 18.5189 43.0943 18.5591 42.8921C18.5551 42.8921 18.5511 42.8881 18.5511 42.8881ZM70.7631 19.3456L66.0151 16.5761L61.2872 13.7824C59.7125 14.6759 58.1339 15.5694 56.5552 16.4467C54.9886 17.2958 53.2292 18.351 51.755 19.0868L51.7309 20.5747C51.7871 20.5747 51.8434 20.5787 51.8996 20.5908C51.9599 20.5989 52.0201 20.611 52.0764 20.6313C52.1326 20.6474 52.1888 20.6717 52.2411 20.7C52.2933 20.7242 52.3455 20.7566 52.3937 20.793C52.4459 20.8253 52.4901 20.8657 52.5343 20.9062C52.6186 20.9911 52.695 21.0881 52.7512 21.2013C52.7833 21.2539 52.8074 21.3145 52.8275 21.3752C52.8918 21.5571 52.9079 21.7471 52.8757 21.9291C52.8798 21.9331 52.8798 21.9372 52.8757 21.9412C52.8757 21.9412 52.8757 21.9425 52.8757 21.9452C52.8677 22.0018 52.8556 22.0625 52.8356 22.115C52.8195 22.1636 52.8034 22.2121 52.7793 22.2565C52.7351 22.3617 52.6709 22.4587 52.5905 22.5436C52.5704 22.5679 52.5504 22.5921 52.5263 22.6123C53.6992 22.7417 54.8681 22.9236 56.025 23.1622C57.676 23.4978 59.3229 23.9223 60.8975 24.4519C62.4722 24.9735 63.9785 25.6042 65.4768 26.3481C66.9792 27.088 68.4735 27.937 70.0802 28.9518C70.3132 29.0973 70.5502 29.2469 70.7912 29.4006C70.7671 26.5422 70.7551 21.8482 70.7631 19.3456ZM18.5511 42.8881C18.4707 42.8598 18.3944 42.8275 18.3221 42.7911C18.298 42.783 18.2779 42.7749 18.2578 42.7628C18.2217 42.7466 18.1815 42.7264 18.1414 42.7102C17.9566 42.6293 17.7798 42.5404 17.6031 42.4474C17.4545 42.3746 17.3058 42.2938 17.1612 42.2048C16.8881 42.0512 16.623 41.8814 16.3619 41.6995C16.3498 41.6914 16.3378 41.6873 16.3257 41.6752C16.3177 41.6712 16.3056 41.6671 16.2976 41.655C16.2896 41.655 16.2775 41.6469 16.2695 41.6388C16.2614 42.4717 16.2534 43.3045 16.2413 44.1374L18.2337 45.1967C18.286 44.6266 18.3623 44.0606 18.4507 43.4946C18.4828 43.2924 18.5189 43.0943 18.5591 42.8921C18.5551 42.8921 18.5511 42.8881 18.5511 42.8881ZM71.1889 19.4466L66.4409 16.6772L61.713 13.8834C60.1383 14.777 58.5597 15.6705 56.981 16.5478C55.4144 17.3968 53.655 18.4521 52.1808 19.1879L52.1567 20.6757C52.2129 20.6757 52.2692 20.6798 52.3254 20.6919C52.3857 20.7 52.4459 20.7121 52.5022 20.7323C52.5584 20.7485 52.6146 20.7728 52.6669 20.8011C52.7191 20.8253 52.7713 20.8577 52.8195 20.8941C52.8717 20.9264 52.9159 20.9668 52.9601 21.0073C53.0444 21.0922 53.1208 21.1892 53.177 21.3024C53.2091 21.355 53.2332 21.4156 53.2533 21.4762C53.7032 22.6972 53.8157 23.146 53.3015 22.0301C53.3055 22.0342 53.3055 22.0382 53.3015 22.0423C53.3015 22.0423 53.3015 22.0436 53.3015 22.0463C53.2895 22.1191 53.2734 22.1757 53.2614 22.2161C53.2453 22.2646 53.181 22.4547 53.0163 22.6447C52.9922 22.673 52.9681 22.6972 52.9521 22.7134C54.125 22.8428 55.2939 23.0247 56.4508 23.2633C58.1018 23.5988 59.7487 24.0234 61.3233 24.553C62.898 25.0745 64.4043 25.7052 65.9026 26.4492C67.405 27.189 68.8993 28.0381 70.506 29.0529C70.739 29.1984 70.976 29.348 71.217 29.5016C71.209 26.15 71.1969 22.7983 71.1889 19.4466ZM18.5511 42.8881C18.4707 42.8598 18.3944 42.8275 18.3221 42.7911C18.298 42.783 18.2779 42.7749 18.2578 42.7628C18.2217 42.7466 18.1815 42.7264 18.1414 42.7102C17.9566 42.6293 17.7798 42.5404 17.6031 42.4474C17.4545 42.3746 17.3058 42.2938 17.1612 42.2048C16.8881 42.0512 16.623 41.8814 16.3619 41.6995C16.3498 41.6914 16.3378 41.6873 16.3257 41.6752C16.3177 41.6712 16.3056 41.6671 16.2976 41.655C16.2896 41.655 16.2775 41.6469 16.2695 41.6388C16.2614 42.4717 16.2534 43.3045 16.2413 44.1374L18.2337 45.1967C18.286 44.6266 18.3623 44.0606 18.4507 43.4946C18.4828 43.2924 18.5189 43.0943 18.5591 42.8921C18.5551 42.8921 18.5511 42.8881 18.5511 42.8881ZM18.5511 42.8881C18.4707 42.8598 18.3944 42.8275 18.3221 42.7911C18.298 42.783 18.2779 42.7749 18.2578 42.7628C18.2217 42.7466 18.1815 42.7264 18.1414 42.7102C17.9566 42.6293 17.7798 42.5404 17.6031 42.4474C17.4545 42.3746 17.3058 42.2938 17.1612 42.2048C16.8881 42.0512 16.623 41.8814 16.3619 41.6995C16.3498 41.6914 16.3378 41.6873 16.3257 41.6752C16.3177 41.6712 16.3056 41.6671 16.2976 41.655C16.2896 41.655 16.2775 41.6469 16.2695 41.6388C16.2614 42.4717 16.2534 43.3045 16.2413 44.1374L18.2337 45.1967C18.286 44.6266 18.3623 44.0606 18.4507 43.4946C18.4828 43.2924 18.5189 43.0943 18.5591 42.8921C18.5551 42.8921 18.5511 42.8881 18.5511 42.8881ZM18.5511 42.8881C18.4707 42.8598 18.3944 42.8275 18.3221 42.7911C18.298 42.783 18.2779 42.7749 18.2578 42.7628C18.2217 42.7466 18.1815 42.7264 18.1414 42.7102C17.9566 42.6293 17.7798 42.5404 17.6031 42.4474C17.4545 42.3746 17.3058 42.2938 17.1612 42.2048C16.8881 42.0512 16.623 41.8814 16.3619 41.6995C16.3498 41.6914 16.3378 41.6873 16.3257 41.6752C16.3177 41.6712 16.3056 41.6671 16.2976 41.655C16.2896 41.655 16.2775 41.6469 16.2695 41.6388C16.2614 42.4717 16.2534 43.3045 16.2413 44.1374L18.2337 45.1967C18.286 44.6266 18.3623 44.0606 18.4507 43.4946C18.4828 43.2924 18.5189 43.0943 18.5591 42.8921C18.5551 42.8921 18.5511 42.8881 18.5511 42.8881ZM18.5511 42.8881C18.4707 42.8598 18.3944 42.8275 18.3221 42.7911C18.298 42.783 18.2779 42.7749 18.2578 42.7628C18.2217 42.7466 18.1815 42.7264 18.1414 42.7102C17.9566 42.6293 17.7798 42.5404 17.6031 42.4474C17.4545 42.3746 17.3058 42.2938 17.1612 42.2048C16.8881 42.0512 16.623 41.8814 16.3619 41.6995C16.3498 41.6914 16.3378 41.6873 16.3257 41.6752C16.3177 41.6712 16.3056 41.6671 16.2976 41.655C16.2896 41.655 16.2775 41.6469 16.2695 41.6388C16.2614 42.4717 16.2534 43.3045 16.2413 44.1374L18.2337 45.1967C18.286 44.6266 18.3623 44.0606 18.4507 43.4946C18.4828 43.2924 18.5189 43.0943 18.5591 42.8921C18.5551 42.8921 18.5511 42.8881 18.5511 42.8881ZM18.5511 42.8881C18.4707 42.8598 18.3944 42.8275 18.3221 42.7911C18.298 42.783 18.2779 42.7749 18.2578 42.7628C18.2217 42.7466 18.1815 42.7264 18.1414 42.7102C17.9566 42.6293 17.7798 42.5404 17.6031 42.4474C17.4545 42.3746 17.3058 42.2938 17.1612 42.2048C16.8881 42.0512 16.623 41.8814 16.3619 41.6995C16.3498 41.6914 16.3378 41.6873 16.3257 41.6752C16.3177 41.6712 16.3056 41.6671 16.2976 41.655C16.2896 41.655 16.2775 41.6469 16.2695 41.6388C16.2614 42.4717 16.2534 43.3045 16.2413 44.1374L18.2337 45.1967C18.286 44.6266 18.3623 44.0606 18.4507 43.4946C18.4828 43.2924 18.5189 43.0943 18.5591 42.8921C18.5551 42.8921 18.5511 42.8881 18.5511 42.8881ZM18.5511 42.8881C18.4707 42.8598 18.3944 42.8275 18.3221 42.7911C18.298 42.783 18.2779 42.7749 18.2578 42.7628C18.2217 42.7466 18.1815 42.7264 18.1414 42.7102C17.9566 42.6293 17.7798 42.5404 17.6031 42.4474C17.4545 42.3746 17.3058 42.2938 17.1612 42.2048C16.8881 42.0512 16.623 41.8814 16.3619 41.6995C16.3498 41.6914 16.3378 41.6873 16.3257 41.6752C16.3177 41.6712 16.3056 41.6671 16.2976 41.655C16.2896 41.655 16.2775 41.6469 16.2695 41.6388C16.2614 42.4717 16.2534 43.3045 16.2413 44.1374L18.2337 45.1967C18.286 44.6266 18.3623 44.0606 18.4507 43.4946C18.4828 43.2924 18.5189 43.0943 18.5591 42.8921C18.5551 42.8921 18.5511 42.8881 18.5511 42.8881ZM18.5511 42.8881C18.4707 42.8598 18.3944 42.8275 18.3221 42.7911C18.298 42.783 18.2779 42.7749 18.2578 42.7628C18.2217 42.7466 18.1815 42.7264 18.1414 42.7102C17.9566 42.6293 17.7798 42.5404 17.6031 42.4474C17.4545 42.3746 17.3058 42.2938 17.1612 42.2048C16.8881 42.0512 16.623 41.8814 16.3619 41.6995C16.3498 41.6914 16.3378 41.6873 16.3257 41.6752C16.3177 41.6712 16.3056 41.6671 16.2976 41.655C16.2896 41.655 16.2775 41.6469 16.2695 41.6388C16.2614 42.4717 16.2534 43.3045 16.2413 44.1374L18.2337 45.1967C18.286 44.6266 18.3623 44.0606 18.4507 43.4946C18.4828 43.2924 18.5189 43.0943 18.5591 42.8921C18.5551 42.8921 18.5511 42.8881 18.5511 42.8881ZM18.5511 42.8881C18.4707 42.8598 18.3944 42.8275 18.3221 42.7911C18.298 42.783 18.2779 42.7749 18.2578 42.7628C18.2217 42.7466 18.1815 42.7264 18.1414 42.7102C17.9566 42.6293 17.7798 42.5404 17.6031 42.4474C17.4545 42.3746 17.3058 42.2938 17.1612 42.2048C16.8881 42.0512 16.623 41.8814 16.3619 41.6995C16.3498 41.6914 16.3378 41.6873 16.3257 41.6752C16.3177 41.6712 16.3056 41.6671 16.2976 41.655C16.2896 41.655 16.2775 41.6469 16.2695 41.6388C16.2614 42.4717 16.2534 43.3045 16.2413 44.1374L18.2337 45.1967C18.286 44.6266 18.3623 44.0606 18.4507 43.4946C18.4828 43.2924 18.5189 43.0943 18.5591 42.8921C18.5551 42.8921 18.5511 42.8881 18.5511 42.8881ZM18.5511 42.8881C18.4707 42.8598 18.3944 42.8275 18.3221 42.7911C18.298 42.783 18.2779 42.7749 18.2578 42.7628C18.2217 42.7466 18.1815 42.7264 18.1414 42.7102C17.9566 42.6293 17.7798 42.5404 17.6031 42.4474C17.4545 42.3746 17.3058 42.2938 17.1612 42.2048C16.8881 42.0512 16.623 41.8814 16.3619 41.6995C16.3498 41.6914 16.3378 41.6873 16.3257 41.6752C16.3177 41.6712 16.3056 41.6671 16.2976 41.655C16.2896 41.655 16.2775 41.6469 16.2695 41.6388C16.2614 42.4717 16.2534 43.3045 16.2413 44.1374L18.2337 45.1967C18.286 44.6266 18.3623 44.0606 18.4507 43.4946C18.4828 43.2924 18.5189 43.0943 18.5591 42.8921C18.5551 42.8921 18.5511 42.8881 18.5511 42.8881ZM18.5511 42.8881C18.4707 42.8598 18.3944 42.8275 18.3221 42.7911C18.298 42.783 18.2779 42.7749 18.2578 42.7628C18.2217 42.7466 18.1815 42.7264 18.1414 42.7102C17.9566 42.6293 17.7798 42.5404 17.6031 42.4474C17.4545 42.3746 17.3058 42.2938 17.1612 42.2048C16.8881 42.0512 16.623 41.8814 16.3619 41.6995C16.3498 41.6914 16.3378 41.6873 16.3257 41.6752C16.3177 41.6712 16.3056 41.6671 16.2976 41.655C16.2896 41.655 16.2775 41.6469 16.2695 41.6388C16.2614 42.4717 16.2534 43.3045 16.2413 44.1374L18.2337 45.1967C18.286 44.6266 18.3623 44.0606 18.4507 43.4946C18.4828 43.2924 18.5189 43.0943 18.5591 42.8921C18.5551 42.8921 18.5511 42.8881 18.5511 42.8881ZM18.5511 42.8881C18.4707 42.8598 18.3944 42.8275 18.3221 42.7911C18.298 42.783 18.2779 42.7749 18.2578 42.7628C18.2217 42.7466 18.1815 42.7264 18.1414 42.7102C17.9566 42.6293 17.7798 42.5404 17.6031 42.4474C17.4545 42.3746 17.3058 42.2938 17.1612 42.2048C16.8881 42.0512 16.623 41.8814 16.3619 41.6995C16.3498 41.6914 16.3378 41.6873 16.3257 41.6752C16.3177 41.6712 16.3056 41.6671 16.2976 41.655C16.2896 41.655 16.2775 41.6469 16.2695 41.6388C16.2614 42.4717 16.2534 43.3045 16.2413 44.1374L18.2337 45.1967C18.286 44.6266 18.3623 44.0606 18.4507 43.4946C18.4828 43.2924 18.5189 43.0943 18.5591 42.8921C18.5551 42.8921 18.5511 42.8881 18.5511 42.8881ZM18.5511 42.8881C18.4707 42.8598 18.3944 42.8275 18.3221 42.7911C18.298 42.783 18.2779 42.7749 18.2578 42.7628C18.2217 42.7466 18.1815 42.7264 18.1414 42.7102C17.9566 42.6293 17.7798 42.5404 17.6031 42.4474C17.4545 42.3746 17.3058 42.2938 17.1612 42.2048C16.8881 42.0512 16.623 41.8814 16.3619 41.6995C16.3498 41.6914 16.3378 41.6873 16.3257 41.6752C16.3177 41.6712 16.3056 41.6671 16.2976 41.655C16.2896 41.655 16.2775 41.6469 16.2695 41.6388C16.2614 42.4717 16.2534 43.3045 16.2413 44.1374L18.2337 45.1967C18.286 44.6266 18.3623 44.0606 18.4507 43.4946C18.4828 43.2924 18.5189 43.0943 18.5591 42.8921C18.5551 42.8921 18.5511 42.8881 18.5511 42.8881ZM18.5511 42.8881C18.4707 42.8598 18.3944 42.8275 18.3221 42.7911C18.298 42.783 18.2779 42.7749 18.2578 42.7628C18.2217 42.7466 18.1815 42.7264 18.1414 42.7102C17.9566 42.6293 17.7798 42.5404 17.6031 42.4474C17.4545 42.3706 17.3058 42.2897 17.1612 42.2048C16.8881 42.0512 16.623 41.8814 16.3619 41.6995C16.3498 41.6914 16.3378 41.6873 16.3257 41.6752C16.3177 41.6712 16.3056 41.6671 16.2976 41.655C16.2896 41.655 16.2775 41.6469 16.2695 41.6388C16.2614 42.4717 16.2534 43.3045 16.2413 44.1374L18.2337 45.1967C18.286 44.6266 18.3623 44.0606 18.4507 43.4946C18.4828 43.2924 18.5189 43.0943 18.5591 42.8921C18.5551 42.8921 18.5511 42.8881 18.5511 42.8881Z" fill="#1CE887"/>
<path d="M219.578 51.9569C219.449 52.6644 219.305 53.3679 219.14 54.0633C219.132 54.0997 219.124 54.1401 219.112 54.1765C218.931 54.9447 218.726 55.7088 218.501 56.4649C218.473 56.5538 218.445 56.6468 218.417 56.7358C218.051 57.9325 217.625 59.109 217.143 60.2613C216.557 61.6925 215.882 63.0752 215.131 64.4013C215.111 64.4458 215.087 64.4862 215.063 64.5267C214.677 65.214 214.271 65.8851 213.846 66.5401C213.821 66.5805 213.793 66.6209 213.765 66.6614C213.524 67.0414 213.275 67.4134 213.018 67.7813C212.215 68.9457 211.339 70.0535 210.419 71.1208C209.487 72.1882 208.511 73.2151 207.487 74.1612C205.438 76.0533 203.241 77.7231 200.863 79.1462C200.172 79.5707 199.457 79.967 198.734 80.3349C198.718 80.347 198.702 80.3551 198.682 80.3591C196.954 81.2486 195.171 81.9844 193.504 82.5626C193.359 82.6111 193.219 82.6596 193.078 82.7081C193.03 82.7203 192.986 82.7364 192.941 82.7526C192.54 82.882 192.15 83.0033 191.777 83.1205L190.037 83.6461C189.997 83.6582 189.961 83.6704 189.921 83.6785C189.836 83.7068 189.748 83.731 189.66 83.7553C188.579 84.0666 187.482 84.3294 186.39 84.5679C185.165 84.8348 183.94 85.0571 182.694 85.2269C181.453 85.4048 180.176 85.5383 178.942 85.607C178.428 85.6393 177.914 85.6595 177.404 85.6757C177.328 85.6757 177.255 85.6757 177.183 85.6798C175.287 85.7242 173.407 85.6555 171.531 85.4776C170.298 85.3563 169.077 85.1986 167.848 84.9682C166.627 84.7377 165.446 84.4709 164.285 84.1434C161.967 83.5006 159.721 82.692 157.568 81.7095C156.942 81.4265 156.327 81.1314 155.717 80.82C155.705 80.816 155.692 80.8079 155.68 80.7998C152.109 78.9886 148.84 76.7245 146.032 74.0359C150.446 75.1234 154.757 75.8229 158.978 76.021C161.087 76.1099 163.176 76.0897 165.221 75.9563C165.827 75.9159 166.414 75.8673 166.996 75.8027C166.996 75.8027 166.997 75.8027 167 75.8027C167.024 75.8027 167.048 75.7986 167.072 75.7946C168.39 75.6571 169.663 75.455 170.949 75.1881H170.953C170.989 75.18 171.033 75.1719 171.069 75.1598H171.073C171.073 75.1598 171.117 75.1517 171.138 75.1477C173.074 74.7434 174.982 74.2259 176.826 73.5992C177.753 73.2758 178.629 72.9604 179.517 72.5844C180.401 72.2165 181.284 71.8162 182.152 71.4038C183.02 70.9874 183.867 70.5386 184.703 70.0818L186.012 69.35C186.474 69.0872 186.9 68.8365 187.314 68.5899C188.949 67.6236 190.222 66.6654 191.459 65.5657C192.684 64.4579 193.841 63.2369 194.833 61.9391C194.862 61.9027 194.89 61.8663 194.918 61.83C194.926 61.8178 194.934 61.8057 194.942 61.7936C195.4 61.1912 195.83 60.5928 196.219 59.9702C196.251 59.9217 196.28 59.8731 196.308 59.8246C196.328 59.8004 196.34 59.7761 196.356 59.7478C196.733 59.1373 197.075 58.5106 197.404 57.8799C198.139 56.4527 198.706 54.9892 199.128 53.5337C199.545 52.0499 199.83 50.5297 199.967 49.0095C200.088 47.4934 200.1 45.9692 199.931 44.4692C199.847 43.7172 199.746 42.9814 199.598 42.2617C199.449 41.5299 199.26 40.786 199.039 40.0583C198.605 38.5988 198.043 37.1999 197.336 35.8535C196.657 34.5113 195.806 33.1851 194.914 32.0571C194.01 30.8847 193.034 29.8779 191.861 28.8631C191.564 28.6044 191.25 28.3416 190.893 28.0545L190.318 27.5977L189.873 27.254C189.246 26.7769 188.527 26.2958 187.812 25.8188C187.366 25.5277 186.912 25.2446 186.45 24.9738C186.442 24.9657 186.43 24.9616 186.422 24.9576C185.398 24.3511 184.345 23.7932 183.297 23.2757C181.75 22.5196 180.192 21.9172 178.264 21.2259C177.404 20.9186 176.524 20.6315 175.633 20.3647C174.741 20.0898 173.841 19.8391 172.933 19.6087C171.105 19.1558 169.33 18.7677 167.426 18.4807L165.932 18.2623L164.373 18.0481C163.385 17.9146 162.457 17.8095 161.513 17.7084C160.573 17.6155 159.613 17.5427 158.669 17.4982C157.729 17.4537 156.785 17.4173 155.737 17.4173H152.571C151.559 17.4173 150.563 17.4416 149.563 17.478C147.602 17.5306 145.554 17.6963 143.501 17.8985C142.477 18.0036 141.456 18.1168 140.428 18.2462C139.404 18.3796 138.376 18.5292 137.347 18.6828C136.319 18.8405 135.299 19.0224 134.282 19.2003C133.258 19.3863 132.238 19.6046 131.209 19.8189C129.94 20.0938 128.683 20.389 127.421 20.7084C126.871 20.8458 126.321 20.9914 125.766 21.145H125.762C125.533 21.2057 125.304 21.2703 125.071 21.335C123.625 21.7434 122.183 22.18 120.729 22.6531C120.689 22.6652 120.653 22.6773 120.609 22.6935C120.605 22.6935 120.605 22.6935 120.605 22.6935C120.046 22.8714 119.484 23.0614 118.917 23.2514C117.865 23.6032 116.873 23.967 115.865 24.3309C114.86 24.7029 113.864 25.1234 112.86 25.5681C111.848 26.0007 110.847 26.4858 109.823 26.9548C108.811 27.436 107.791 27.9211 106.742 28.382C107.409 27.4562 108.1 26.5505 108.803 25.6489C109.506 24.7554 110.241 23.8862 111.004 23.0129C111.775 22.1517 112.591 21.3189 113.438 20.5022C113.904 20.0494 114.386 19.6168 114.872 19.2003C114.884 19.1841 114.897 19.172 114.913 19.1639C115.294 18.8324 115.676 18.509 116.049 18.1855C119.544 15.1896 123.437 12.501 127.542 10.2208C128.562 9.64261 129.607 9.10085 130.663 8.56717C131.723 8.03349 132.796 7.54428 133.873 7.05912C136.026 6.10497 138.223 5.23167 140.464 4.4635C141.553 4.08345 142.65 3.72362 143.766 3.38805C143.766 3.38805 143.774 3.38401 143.778 3.38401C144.136 3.27889 144.493 3.17377 144.855 3.06866C145.176 2.97567 145.502 2.88672 145.827 2.80182H145.831C145.963 2.76543 146.092 2.72904 146.225 2.6967C146.598 2.59562 146.972 2.49859 147.349 2.4056C149.695 1.83149 152.109 1.37463 154.279 0.990541C155.419 0.792433 156.665 0.590281 157.918 0.448776C159.171 0.30727 160.408 0.198108 161.666 0.121291C162.919 0.0363872 164.188 0.0161721 165.393 0.00808605L167.125 0C167.699 0 168.306 0 168.92 0.0202151C171.302 0.0849035 173.785 0.26684 176.187 0.606454H176.191C176.287 0.618583 176.376 0.634755 176.472 0.646884C176.528 0.65497 176.589 0.663056 176.645 0.675185C176.982 0.723701 177.32 0.772218 177.653 0.82882C177.934 0.873293 178.211 0.917766 178.489 0.966283C179.063 1.06332 179.637 1.16843 180.212 1.28164C181.457 1.53635 182.702 1.8234 183.944 2.15089C186.221 2.72904 188.84 3.53765 191.327 4.5484C192.572 5.04569 193.785 5.59555 194.978 6.18987L195.026 6.21413C196.207 6.80037 197.364 7.43512 198.509 8.09818C199.67 8.77336 200.795 9.50111 201.951 10.3138C202.241 10.5159 202.542 10.7383 202.831 10.9526L203.566 11.5024C204.08 11.8905 204.631 12.3191 205.177 12.7679C206.221 13.625 207.246 14.567 208.23 15.5616C208.262 15.5899 208.29 15.6222 208.322 15.6546C208.889 16.2287 209.443 16.823 209.973 17.4335C210.033 17.4982 210.094 17.5669 210.146 17.6357C210.552 18.0966 210.941 18.5696 211.315 19.0467C213.143 21.3957 214.645 23.8296 215.942 26.4414C217.208 29.0451 218.228 31.7984 218.947 34.6083C219.297 36.0153 219.582 37.4303 219.795 38.8818C220.008 40.3413 220.152 41.8089 220.192 43.2604C220.289 46.1794 220.104 49.0985 219.574 51.9569H219.578Z" fill="#1CE887"/>
<path d="M20.7832 21.3066C33.0469 10.819 51.1351 8.76106 66.0781 14.1585C69.8661 15.5008 73.4652 17.4212 76.8394 19.5802C80.1936 21.6906 83.5357 23.983 86.6126 26.5544C92.0074 31.0139 96.7032 36.2334 101.395 41.3923C109.895 51.0753 117.676 61.4174 125.95 71.2622C136.23 83.0961 148.092 94.2791 163.706 98.0715C167.522 99.0175 171.462 99.4906 175.399 99.5148C169.474 99.8787 163.44 99.0903 157.789 97.2022C140.492 91.5743 127.895 77.2499 116.699 63.5319C109.369 54.6736 101.515 44.7197 93.6302 36.4517C88.2756 30.6904 82.3667 25.58 75.7107 21.3672C72.4329 19.2204 69.0506 17.3161 65.4314 15.9293C54.5013 11.6963 42.1211 11.5629 31.1228 15.6787C27.4192 17.0088 23.9164 18.8929 20.7872 21.3066H20.7832Z" fill="white"/>
</g>
<defs>
<clipPath id="clip0_29_8956">
<rect width="224" height="106" fill="white"/>
</clipPath>
</defs>
</svg>
